<?xml version="1.0" encoding="utf-8"?>
<!-- Generator: Adobe Illustrator 19.0.0, SVG Export Plug-In . SVG Version: 6.00 Build 0)  -->
<svg version="1.1"
	 id="svg2" xmlns:dc="http://purl.org/dc/elements/1.1/" xmlns:cc="http://creativecommons.org/ns#" xmlns:rdf="http://www.w3.org/1999/02/22-rdf-syntax-ns#" xmlns:svg="http://www.w3.org/2000/svg" xmlns:sodipodi="http://sodipodi.sourceforge.net/DTD/sodipodi-0.dtd" xmlns:inkscape="http://www.inkscape.org/namespaces/inkscape" inkscape:version="0.46" sodipodi:version="0.32" sodipodi:docname="accommodation_shelter2.svg" sodipodi:docbase="s:\Data\FacilityIcons" inkscape:output_extension="org.inkscape.output.svg.inkscape"
	 xmlns="http://www.w3.org/2000/svg" xmlns:xlink="http://www.w3.org/1999/xlink" x="0px" y="0px" viewBox="38 -218 580 580"
	 style="enable-background:new 38 -218 580 580;" xml:space="preserve">
<style type="text/css">
	.st0{display:none;}
	.st1{display:inline;fill:none;stroke:#757575;stroke-width:0.1;}
	.st2{fill:#00CC8D;}
</style>
<sodipodi:namedview  gridtolerance="10.0" objecttolerance="10.0" guidetolerance="10.0" showgrid="false" id="base" inkscape:zoom="0.92167712" bordercolor="#666666" pagecolor="#ffffff" borderopacity="1.0" inkscape:cx="264.08315" inkscape:cy="281.19503" inkscape:window-x="91" inkscape:window-y="25" inkscape:window-height="947" inkscape:pageopacity="0.0" inkscape:current-layer="svg2" inkscape:window-width="1048" inkscape:pageshadow="2">
	</sodipodi:namedview>
<defs>
	
	
		<inkscape:perspective  sodipodi:type="inkscape:persp3d" inkscape:vp_x="0 : 290 : 1" inkscape:vp_y="0 : 1000 : 0" inkscape:vp_z="580 : 290 : 1" id="perspective2441" inkscape:persp3d-origin="290 : 193.33333 : 1">
		</inkscape:perspective>
	
		<inkscape:perspective  sodipodi:type="inkscape:persp3d" inkscape:vp_x="0 : 30 : 1" inkscape:vp_y="0 : 1000 : 0" inkscape:vp_z="60 : 30 : 1" id="perspective3452" inkscape:persp3d-origin="30 : 20 : 1">
		</inkscape:perspective>
	
		<inkscape:perspective  sodipodi:type="inkscape:persp3d" inkscape:vp_x="0 : 526.18109 : 1" inkscape:vp_y="0 : 1000 : 0" inkscape:vp_z="744.09448 : 526.18109 : 1" id="perspective4471" inkscape:persp3d-origin="372.04724 : 350.78739 : 1">
		</inkscape:perspective>
	
		<inkscape:perspective  sodipodi:type="inkscape:persp3d" inkscape:vp_x="0 : 6 : 1" inkscape:vp_y="0 : 1000 : 0" inkscape:vp_z="12 : 6 : 1" id="perspective4668" inkscape:persp3d-origin="6 : 4 : 1">
		</inkscape:perspective>
</defs>
<g id="layer3" transform="matrix(48.14969,0,0,48.14969,-536.27327,-33.306752)" inkscape:label="Layout" class="st0">
	<rect id="rect4134" x="1.8" y="-3.5" class="st1" width="10" height="10"/>
	<rect id="rect4136" x="2.8" y="-2.5" class="st1" width="8" height="8"/>
</g>
<path d="M93.8-55.6c2.5,0,4.9-0.9,6.8-2.8l78.9-78.9c3.7-3.7,3.7-9.8,0-13.6c-3.8-3.8-9.8-3.8-13.6,0L87.1-71.9
	c-3.7,3.7-3.7,9.8,0,13.6C88.9-56.5,91.4-55.6,93.8-55.6z"/>
<path d="M200.6-85.5c2.5,0,4.9-0.9,6.8-2.8l78.9-78.9c3.7-3.7,3.7-9.8,0-13.6c-3.8-3.8-9.8-3.7-13.6,0l-78.9,78.9
	c-3.7,3.7-3.7,9.8,0,13.6C195.7-86.5,198.1-85.5,200.6-85.5z"/>
<path d="M159.4-40.7c-3.7-3.7-9.8-3.7-13.6,0L84,21.2c-3.7,3.7-3.7,9.8,0,13.6c1.9,1.9,4.3,2.8,6.8,2.8s4.9-0.9,6.8-2.8l61.9-61.9
	C163.2-30.9,163.2-36.9,159.4-40.7z"/>
<path d="M228.2-27.3c1.9,1.9,4.3,2.8,6.8,2.8s4.9-0.9,6.8-2.8l78.9-78.9c3.7-3.7,3.7-9.8,0-13.6c-3.8-3.8-9.8-3.8-13.6,0l-78.9,78.9
	C224.5-37.1,224.5-31.1,228.2-27.3z"/>
<path d="M409.1-44.4c1.9,1.9,4.3,2.8,6.8,2.8s4.9-0.9,6.8-2.8l78.9-78.9c3.8-3.7,3.8-9.8,0-13.6c-3.7-3.8-9.8-3.7-13.6,0L409.1-58
	C405.4-54.2,405.4-48.2,409.1-44.4z"/>
<path d="M525.9-71.6c2.4,0,4.8-0.9,6.7-2.7l58.3-56.2c3.8-3.7,3.9-9.8,0.3-13.6c-3.7-3.8-9.8-3.9-13.6-0.3l-58.3,56.2
	c-3.8,3.7-3.9,9.8-0.3,13.6C520.8-72.5,523.3-71.6,525.9-71.6z"/>
<path d="M593.2-66.9c-3.7-3.8-9.8-3.9-13.6-0.2L519.2-8c-3.8,3.7-3.9,9.8-0.2,13.6c1.9,1.9,4.4,2.9,6.9,2.9c2.4,0,4.8-0.9,6.7-2.7
	L593-53.3C596.8-57,596.9-63.1,593.2-66.9z"/>
<path d="M478.2-39.6L451-14.4c-3.9,3.6-4.1,9.7-0.5,13.6c1.9,2.1,4.5,3.1,7.1,3.1c2.3,0,4.7-0.8,6.5-2.5l27.2-25.1
	c3.9-3.6,4.1-9.7,0.5-13.6C488.2-42.9,482.1-43.1,478.2-39.6z"/>
<path d="M352.7-51.1c2.4,0,4.8-0.9,6.7-2.7l39.3-37.8c3.8-3.7,3.9-9.8,0.2-13.6c-3.7-3.8-9.8-3.9-13.6-0.3L346-67.6
	c-3.8,3.7-3.9,9.8-0.2,13.6C347.7-52.1,350.2-51.1,352.7-51.1z"/>
<path d="M362.2-127.5c2.5,0,5-1,6.9-2.9l46.3-47.7c3.7-3.8,3.6-9.9-0.2-13.6c-3.8-3.7-9.9-3.6-13.6,0.2l-46.3,47.7
	c-3.7,3.8-3.6,9.9,0.2,13.6C357.4-128.4,359.8-127.5,362.2-127.5z"/>
<path class="st2" d="M547.3,89.1L337.9-22.6c-3.2-1.7-6.9-1.7-10.1,0L118.4,89.1c-3,1.6-5.1,4.5-5.6,7.9s0.6,6.8,3,9.2l14,14
	c3,3,7.6,4,11.6,2.4l41.1-16.6v203.3c0,6.2,5.1,11.3,11.3,11.3h26.9c6.3,0,11.3-5.1,11.3-11.3V92.2l100.7-11.9l99.3,12v216.9
	c0,6.2,5.1,11.3,11.3,11.3h26.9c6.2,0,11.3-5.1,11.3-11.3V105.6l42.6,17.2c1.3,0.5,2.7,0.8,4,0.8c2.8,0,5.6-1.1,7.7-3.2l14-14.3
	c2.4-2.4,3.5-5.8,3-9.1C552.3,93.6,550.2,90.7,547.3,89.1z"/>
</svg>
