<?xml version="1.0" encoding="utf-8"?>
<!-- Generator: Adobe Illustrator 19.0.0, SVG Export Plug-In . SVG Version: 6.00 Build 0)  -->
<svg version="1.1"
	 id="svg2" xmlns:dc="http://purl.org/dc/elements/1.1/" xmlns:cc="http://creativecommons.org/ns#" xmlns:rdf="http://www.w3.org/1999/02/22-rdf-syntax-ns#" xmlns:svg="http://www.w3.org/2000/svg" xmlns:sodipodi="http://sodipodi.sourceforge.net/DTD/sodipodi-0.dtd" xmlns:inkscape="http://www.inkscape.org/namespaces/inkscape" inkscape:version="0.46" sodipodi:version="0.32" sodipodi:docname="amenity_court.svg" sodipodi:docbase="s:\Data\FacilityIcons" inkscape:output_extension="org.inkscape.output.svg.inkscape"
	 xmlns="http://www.w3.org/2000/svg" xmlns:xlink="http://www.w3.org/1999/xlink" x="0px" y="0px" viewBox="38 -218 580 580"
	 style="enable-background:new 38 -218 580 580;" xml:space="preserve">
<style type="text/css">
	.st0{display:none;}
	.st1{display:inline;fill:none;stroke:#757575;stroke-width:0.1;}
	.st2{fill:#490046;}
</style>
<sodipodi:namedview  gridtolerance="10.0" objecttolerance="10.0" guidetolerance="10.0" showgrid="false" id="base" inkscape:zoom="1" bordercolor="#666666" pagecolor="#ffffff" borderopacity="1.0" inkscape:cx="-39.520004" inkscape:cy="303.19042" inkscape:window-x="0" inkscape:window-y="20" inkscape:window-height="1003" inkscape:pageopacity="0.0" inkscape:current-layer="svg2" inkscape:window-width="1400" inkscape:pageshadow="2">
	</sodipodi:namedview>
<defs>
	
	
		<inkscape:perspective  sodipodi:type="inkscape:persp3d" inkscape:vp_x="0 : 290 : 1" inkscape:vp_y="0 : 1000 : 0" inkscape:vp_z="580 : 290 : 1" id="perspective2441" inkscape:persp3d-origin="290 : 193.33333 : 1">
		</inkscape:perspective>
	
		<inkscape:perspective  sodipodi:type="inkscape:persp3d" inkscape:vp_x="0 : 526.18109 : 1" inkscape:vp_y="0 : 1000 : 0" inkscape:vp_z="744.09448 : 526.18109 : 1" id="perspective2466" inkscape:persp3d-origin="372.04724 : 350.78739 : 1">
		</inkscape:perspective>
	
		<inkscape:perspective  sodipodi:type="inkscape:persp3d" inkscape:vp_x="0 : 526.18109 : 1" inkscape:vp_y="0 : 1000 : 0" inkscape:vp_z="744.09448 : 526.18109 : 1" id="perspective3333" inkscape:persp3d-origin="372.04724 : 350.78739 : 1">
		</inkscape:perspective>
	
		<inkscape:perspective  sodipodi:type="inkscape:persp3d" inkscape:vp_x="0 : 526.18109 : 1" inkscape:vp_y="0 : 1000 : 0" inkscape:vp_z="744.09448 : 526.18109 : 1" id="perspective3401" inkscape:persp3d-origin="372.04724 : 350.78739 : 1">
		</inkscape:perspective>
	
		<inkscape:perspective  sodipodi:type="inkscape:persp3d" inkscape:vp_x="0 : 526.18109 : 1" inkscape:vp_y="0 : 1000 : 0" inkscape:vp_z="744.09448 : 526.18109 : 1" id="perspective3464" inkscape:persp3d-origin="372.04724 : 350.78739 : 1">
		</inkscape:perspective>
	
		<inkscape:perspective  sodipodi:type="inkscape:persp3d" inkscape:vp_x="0 : 225 : 1" inkscape:vp_y="0 : 1000 : 0" inkscape:vp_z="450 : 225 : 1" id="perspective3581" inkscape:persp3d-origin="225 : 150 : 1">
		</inkscape:perspective>
	
		<inkscape:perspective  sodipodi:type="inkscape:persp3d" inkscape:vp_x="0 : 225 : 1" inkscape:vp_y="0 : 1000 : 0" inkscape:vp_z="450 : 225 : 1" id="perspective4312" inkscape:persp3d-origin="225 : 150 : 1">
		</inkscape:perspective>
	
		<inkscape:perspective  sodipodi:type="inkscape:persp3d" inkscape:vp_x="0 : 526.18109 : 1" inkscape:vp_y="0 : 1000 : 0" inkscape:vp_z="744.09448 : 526.18109 : 1" id="perspective8860" inkscape:persp3d-origin="372.04724 : 350.78739 : 1">
		</inkscape:perspective>
	
		<inkscape:perspective  sodipodi:type="inkscape:persp3d" inkscape:vp_x="0 : 526.18109 : 1" inkscape:vp_y="0 : 1000 : 0" inkscape:vp_z="744.09448 : 526.18109 : 1" id="perspective8887" inkscape:persp3d-origin="372.04724 : 350.78739 : 1">
		</inkscape:perspective>
	
		<inkscape:perspective  sodipodi:type="inkscape:persp3d" inkscape:vp_x="0 : 16 : 1" inkscape:vp_y="0 : 1000 : 0" inkscape:vp_z="32 : 16 : 1" id="perspective4904" inkscape:persp3d-origin="16 : 10.666667 : 1">
		</inkscape:perspective>
	
		<inkscape:perspective  sodipodi:type="inkscape:persp3d" inkscape:vp_x="0 : 6 : 1" inkscape:vp_y="0 : 1000 : 0" inkscape:vp_z="12 : 6 : 1" id="perspective4668" inkscape:persp3d-origin="6 : 4 : 1">
		</inkscape:perspective>
	
		<inkscape:perspective  sodipodi:type="inkscape:persp3d" inkscape:vp_x="0 : 526.18109 : 1" inkscape:vp_y="0 : 1000 : 0" inkscape:vp_z="744.09448 : 526.18109 : 1" id="perspective4471" inkscape:persp3d-origin="372.04724 : 350.78739 : 1">
		</inkscape:perspective>
	
		<inkscape:perspective  sodipodi:type="inkscape:persp3d" inkscape:vp_x="0 : 30 : 1" inkscape:vp_y="0 : 1000 : 0" inkscape:vp_z="60 : 30 : 1" id="perspective3452" inkscape:persp3d-origin="30 : 20 : 1">
		</inkscape:perspective>
	
		<inkscape:perspective  sodipodi:type="inkscape:persp3d" inkscape:vp_x="0 : 290 : 1" inkscape:vp_y="0 : 1000 : 0" inkscape:vp_z="580 : 290 : 1" id="perspective9479" inkscape:persp3d-origin="290 : 193.33333 : 1">
		</inkscape:perspective>
	
		<inkscape:perspective  sodipodi:type="inkscape:persp3d" inkscape:vp_x="0 : 526.18109 : 1" inkscape:vp_y="0 : 1000 : 0" inkscape:vp_z="744.09448 : 526.18109 : 1" id="perspective9690" inkscape:persp3d-origin="372.04724 : 350.78739 : 1">
		</inkscape:perspective>
	
		<inkscape:perspective  sodipodi:type="inkscape:persp3d" inkscape:vp_x="0 : 290 : 1" inkscape:vp_y="0 : 1000 : 0" inkscape:vp_z="580 : 290 : 1" id="perspective9819" inkscape:persp3d-origin="290 : 193.33333 : 1">
		</inkscape:perspective>
	
		<inkscape:perspective  sodipodi:type="inkscape:persp3d" inkscape:vp_x="0 : 30 : 1" inkscape:vp_y="0 : 1000 : 0" inkscape:vp_z="60 : 30 : 1" id="perspective9817" inkscape:persp3d-origin="30 : 20 : 1">
		</inkscape:perspective>
	
		<inkscape:perspective  sodipodi:type="inkscape:persp3d" inkscape:vp_x="0 : 526.18109 : 1" inkscape:vp_y="0 : 1000 : 0" inkscape:vp_z="744.09448 : 526.18109 : 1" id="perspective9805" inkscape:persp3d-origin="372.04724 : 350.78739 : 1">
		</inkscape:perspective>
	
		<inkscape:perspective  sodipodi:type="inkscape:persp3d" inkscape:vp_x="0 : 6 : 1" inkscape:vp_y="0 : 1000 : 0" inkscape:vp_z="12 : 6 : 1" id="perspective9803" inkscape:persp3d-origin="6 : 4 : 1">
		</inkscape:perspective>
	
		<inkscape:perspective  sodipodi:type="inkscape:persp3d" inkscape:vp_x="0 : 16 : 1" inkscape:vp_y="0 : 1000 : 0" inkscape:vp_z="32 : 16 : 1" id="perspective9801" inkscape:persp3d-origin="16 : 10.666667 : 1">
		</inkscape:perspective>
	
		<inkscape:perspective  sodipodi:type="inkscape:persp3d" inkscape:vp_x="0 : 526.18109 : 1" inkscape:vp_y="0 : 1000 : 0" inkscape:vp_z="744.09448 : 526.18109 : 1" id="perspective9799" inkscape:persp3d-origin="372.04724 : 350.78739 : 1">
		</inkscape:perspective>
	
		<inkscape:perspective  sodipodi:type="inkscape:persp3d" inkscape:vp_x="0 : 526.18109 : 1" inkscape:vp_y="0 : 1000 : 0" inkscape:vp_z="744.09448 : 526.18109 : 1" id="perspective9797" inkscape:persp3d-origin="372.04724 : 350.78739 : 1">
		</inkscape:perspective>
	
		<inkscape:perspective  sodipodi:type="inkscape:persp3d" inkscape:vp_x="0 : 225 : 1" inkscape:vp_y="0 : 1000 : 0" inkscape:vp_z="450 : 225 : 1" id="perspective9795" inkscape:persp3d-origin="225 : 150 : 1">
		</inkscape:perspective>
	
		<inkscape:perspective  sodipodi:type="inkscape:persp3d" inkscape:vp_x="0 : 225 : 1" inkscape:vp_y="0 : 1000 : 0" inkscape:vp_z="450 : 225 : 1" id="perspective9793" inkscape:persp3d-origin="225 : 150 : 1">
		</inkscape:perspective>
	
		<inkscape:perspective  sodipodi:type="inkscape:persp3d" inkscape:vp_x="0 : 526.18109 : 1" inkscape:vp_y="0 : 1000 : 0" inkscape:vp_z="744.09448 : 526.18109 : 1" id="perspective9791" inkscape:persp3d-origin="372.04724 : 350.78739 : 1">
		</inkscape:perspective>
	
		<inkscape:perspective  sodipodi:type="inkscape:persp3d" inkscape:vp_x="0 : 526.18109 : 1" inkscape:vp_y="0 : 1000 : 0" inkscape:vp_z="744.09448 : 526.18109 : 1" id="perspective9789" inkscape:persp3d-origin="372.04724 : 350.78739 : 1">
		</inkscape:perspective>
	
		<inkscape:perspective  sodipodi:type="inkscape:persp3d" inkscape:vp_x="0 : 526.18109 : 1" inkscape:vp_y="0 : 1000 : 0" inkscape:vp_z="744.09448 : 526.18109 : 1" id="perspective9787" inkscape:persp3d-origin="372.04724 : 350.78739 : 1">
		</inkscape:perspective>
	
		<inkscape:perspective  sodipodi:type="inkscape:persp3d" inkscape:vp_x="0 : 526.18109 : 1" inkscape:vp_y="0 : 1000 : 0" inkscape:vp_z="744.09448 : 526.18109 : 1" id="perspective9785" inkscape:persp3d-origin="372.04724 : 350.78739 : 1">
		</inkscape:perspective>
	
		<inkscape:perspective  sodipodi:type="inkscape:persp3d" inkscape:vp_x="0 : 290 : 1" inkscape:vp_y="0 : 1000 : 0" inkscape:vp_z="580 : 290 : 1" id="perspective9783" inkscape:persp3d-origin="290 : 193.33333 : 1">
		</inkscape:perspective>
	
		<sodipodi:namedview  id="namedview4258" inkscape:zoom="0.61399264" bordercolor="#666666" pagecolor="#ffffff" borderopacity="1.0" inkscape:cx="475.26707" inkscape:cy="250.37448" inkscape:window-x="0" inkscape:window-y="26" inkscape:window-height="739" inkscape:pageopacity="0.0" inkscape:window-width="1012" inkscape:pageshadow="2">
		</sodipodi:namedview>
	
		<inkscape:perspective  sodipodi:type="inkscape:persp3d" inkscape:vp_x="0 : 100 : 1" inkscape:vp_y="0 : 1000 : 0" inkscape:vp_z="200 : 100 : 1" id="perspective11483" inkscape:persp3d-origin="100 : 66.666667 : 1">
		</inkscape:perspective>
	
		<inkscape:perspective  sodipodi:type="inkscape:persp3d" inkscape:vp_x="0 : 526.18109 : 1" inkscape:vp_y="0 : 1000 : 0" inkscape:vp_z="744.09448 : 526.18109 : 1" id="perspective34" inkscape:persp3d-origin="372.04724 : 350.78739 : 1">
		</inkscape:perspective>
	
		<inkscape:perspective  sodipodi:type="inkscape:persp3d" inkscape:vp_x="0 : 526.18109 : 1" inkscape:vp_y="0 : 1000 : 0" inkscape:vp_z="744.09448 : 526.18109 : 1" id="perspective13933" inkscape:persp3d-origin="372.04724 : 350.78739 : 1">
		</inkscape:perspective>
	
		<inkscape:perspective  sodipodi:type="inkscape:persp3d" inkscape:vp_x="0 : 526.18109 : 1" inkscape:vp_y="0 : 1000 : 0" inkscape:vp_z="744.09448 : 526.18109 : 1" id="perspective13955" inkscape:persp3d-origin="372.04724 : 350.78739 : 1">
		</inkscape:perspective>
	
		<inkscape:perspective  sodipodi:type="inkscape:persp3d" inkscape:vp_x="0 : 526.18109 : 1" inkscape:vp_y="0 : 1000 : 0" inkscape:vp_z="744.09448 : 526.18109 : 1" id="perspective2446" inkscape:persp3d-origin="372.04724 : 350.78739 : 1">
		</inkscape:perspective>
	
		<inkscape:perspective  sodipodi:type="inkscape:persp3d" inkscape:vp_x="0 : 204.28572 : 1" inkscape:vp_y="0 : 1000 : 0" inkscape:vp_z="405.71429 : 204.28572 : 1" id="perspective5571" inkscape:persp3d-origin="202.85715 : 136.19048 : 1">
		</inkscape:perspective>
	
		<inkscape:perspective  sodipodi:type="inkscape:persp3d" inkscape:vp_x="0 : 250 : 1" inkscape:vp_y="0 : 1000 : 0" inkscape:vp_z="500 : 250 : 1" id="perspective5412" inkscape:persp3d-origin="250 : 166.66667 : 1">
		</inkscape:perspective>
	
		<inkscape:perspective  sodipodi:type="inkscape:persp3d" inkscape:vp_x="0 : 16 : 1" inkscape:vp_y="0 : 1000 : 0" inkscape:vp_z="32 : 16 : 1" id="perspective5233" inkscape:persp3d-origin="16 : 10.666667 : 1">
		</inkscape:perspective>
	
		<inkscape:perspective  sodipodi:type="inkscape:persp3d" inkscape:vp_x="0 : 16 : 1" inkscape:vp_y="0 : 1000 : 0" inkscape:vp_z="32 : 16 : 1" id="perspective14642" inkscape:persp3d-origin="16 : 10.666667 : 1">
		</inkscape:perspective>
	
		<inkscape:perspective  sodipodi:type="inkscape:persp3d" inkscape:vp_x="0 : 6 : 1" inkscape:vp_y="0 : 1000 : 0" inkscape:vp_z="12 : 6 : 1" id="perspective14640" inkscape:persp3d-origin="6 : 4 : 1">
		</inkscape:perspective>
	
		<inkscape:perspective  sodipodi:type="inkscape:persp3d" inkscape:vp_x="0 : 526.18109 : 1" inkscape:vp_y="0 : 1000 : 0" inkscape:vp_z="744.09448 : 526.18109 : 1" id="perspective14638" inkscape:persp3d-origin="372.04724 : 350.78739 : 1">
		</inkscape:perspective>
	
		<inkscape:perspective  sodipodi:type="inkscape:persp3d" inkscape:vp_x="0 : 30 : 1" inkscape:vp_y="0 : 1000 : 0" inkscape:vp_z="60 : 30 : 1" id="perspective14626" inkscape:persp3d-origin="30 : 20 : 1">
		</inkscape:perspective>
	
		<inkscape:perspective  sodipodi:type="inkscape:persp3d" inkscape:vp_x="0 : 290 : 1" inkscape:vp_y="0 : 1000 : 0" inkscape:vp_z="580 : 290 : 1" id="perspective14624" inkscape:persp3d-origin="290 : 193.33333 : 1">
		</inkscape:perspective>
	
		<inkscape:perspective  sodipodi:type="inkscape:persp3d" inkscape:vp_x="0 : 526.18109 : 1" inkscape:vp_y="0 : 1000 : 0" inkscape:vp_z="744.09448 : 526.18109 : 1" id="perspective14775" inkscape:persp3d-origin="372.04724 : 350.78739 : 1">
		</inkscape:perspective>
	
		<inkscape:perspective  sodipodi:type="inkscape:persp3d" inkscape:vp_x="0 : 526.18109 : 1" inkscape:vp_y="0 : 1000 : 0" inkscape:vp_z="744.09448 : 526.18109 : 1" id="perspective14839" inkscape:persp3d-origin="372.04724 : 350.78739 : 1">
		</inkscape:perspective>
	
		<inkscape:perspective  sodipodi:type="inkscape:persp3d" inkscape:vp_x="0 : 526.18109 : 1" inkscape:vp_y="0 : 1000 : 0" inkscape:vp_z="744.09448 : 526.18109 : 1" id="perspective15123" inkscape:persp3d-origin="372.04724 : 350.78739 : 1">
		</inkscape:perspective>
	
		<inkscape:perspective  sodipodi:type="inkscape:persp3d" inkscape:vp_x="0 : 526.18109 : 1" inkscape:vp_y="0 : 1000 : 0" inkscape:vp_z="744.09448 : 526.18109 : 1" id="perspective2522" inkscape:persp3d-origin="372.04724 : 350.78739 : 1">
		</inkscape:perspective>
</defs>
<g id="layer3" transform="matrix(48.14969,0,0,48.14969,-1210.2219,-51.870914)" inkscape:label="Layout" class="st0">
	<rect id="rect4134" x="1.8" y="-3.5" class="st1" width="10" height="10"/>
	<rect id="rect4136" x="2.8" y="-2.5" class="st1" width="8" height="8"/>
</g>
<g id="g9828" transform="matrix(48.14969,0,0,48.14969,-1870.5198,102.97115)" inkscape:label="Layout" class="st0">
	<rect id="rect9830" x="1.8" y="-3.5" class="st1" width="10" height="10"/>
	<rect id="rect9832" x="2.8" y="-2.5" class="st1" width="8" height="8"/>
</g>
<g id="g14695" transform="matrix(48.14969,0,0,48.14969,-1210.2219,-182.06834)" inkscape:label="Layout" class="st0">
	<rect id="rect14697" x="1.8" y="-3.5" class="st1" width="10" height="10"/>
	<rect id="rect14699" x="2.8" y="-2.5" class="st1" width="8" height="8"/>
</g>
<path class="st2" d="M588.8,157.5c-1-1.2-2.5-1.9-4.1-1.9h-1.3L503.6-36.5c30.6-6.6,47.1-23.9,60.3-42c0.8-1.1,0.6-2.7-0.4-3.6
	c-1.1-0.9-2.7-0.9-3.7,0.1c-12.8,12.5-45.3,27.6-66.3,27.6c-1,0-2,0-3-0.1c-0.1,0-0.1,0-0.2,0c-23.2-0.1-48.4-9-75-26.3
	c-21.3-14.3-47.1-23-78.8-26.6l-2-54.2c-0.1-2.9-2.6-5.3-5.5-5.2c0,0-0.1,0-0.1,0c0,0-0.1,0-0.1,0c0,0-0.1,0-0.1,0
	c-2.9,0-5.3,2.3-5.4,5.2l-2,54.2c-31.7,3.6-57.5,12.3-78.8,26.5c-26.6,17.3-51.9,26.2-75,26.3c-0.1,0-0.1,0-0.2,0
	c-0.9,0.1-2,0.1-3,0.1c-21,0-53.4-15.1-66.3-27.6c-1-1-2.6-1-3.7-0.1c-1.1,0.9-1.2,2.5-0.4,3.6c13.2,18,29.7,35.3,60.3,42
	L74.4,155.6h-1.3c-1.6,0-3.1,0.7-4.1,1.9c-1,1.2-1.5,2.8-1.3,4.3c5.4,36.1,44.7,63.2,91.4,63.2s86-27.2,91.4-63.2
	c0.2-1.6-0.2-3.1-1.3-4.3c-1-1.2-2.5-1.9-4.1-1.9h-1.2L166.2-34.5c0.3,0,0.6,0.1,1,0.1c0.1,0,0.2,0,0.3,0c0,0,0,0,0,0
	c36.3-0.6,55.4-10.8,74-20.6c1.2-0.6,2.4-1.3,3.6-1.9c7.8-2.9,15.4-6.6,22.7-10.1c16.5-8,32.2-15.6,51.4-15.6c0.4,0,0.8,0,1.2,0
	l-13.4,354.3H200c-3,0-5.4,2.4-5.4,5.4v24.2c0,3,2.4,5.4,5.4,5.4h126.5h4.7h126.5c3,0,5.4-2.4,5.4-5.4v-24.2c0-3-2.4-5.4-5.4-5.4
	H350.9L337.5-82.6c0.4,0,0.8,0,1.2,0c19.3,0,34.9,7.6,51.4,15.6c7.3,3.5,14.8,7.2,22.7,10.1c1.2,0.6,2.4,1.3,3.6,1.9
	c18.5,9.9,37.7,20.1,74,20.6c0,0,0,0,0,0c0.1,0,0.2,0,0.3,0c0.3,0,0.7-0.1,1-0.1l-77.8,190.1h-1.2c-1.6,0-3.1,0.7-4.1,1.9
	c-1,1.2-1.5,2.8-1.3,4.3c5.4,36.1,44.7,63.2,91.4,63.2s86-27.2,91.4-63.2C590.3,160.3,589.8,158.7,588.8,157.5z M86.2,155.6
	l73.7-177.2l72.5,177.2H86.2z M498-21.6l73.7,177.2H425.5L498-21.6z"/>
</svg>
