<?xml version="1.0" encoding="utf-8"?>
<!-- Generator: Adobe Illustrator 19.0.0, SVG Export Plug-In . SVG Version: 6.00 Build 0)  -->
<svg version="1.1"
	 id="svg2" xmlns:dc="http://purl.org/dc/elements/1.1/" xmlns:cc="http://creativecommons.org/ns#" xmlns:rdf="http://www.w3.org/1999/02/22-rdf-syntax-ns#" xmlns:svg="http://www.w3.org/2000/svg" xmlns:sodipodi="http://sodipodi.sourceforge.net/DTD/sodipodi-0.dtd" xmlns:inkscape="http://www.inkscape.org/namespaces/inkscape" inkscape:version="0.47 r22583" sodipodi:version="0.32" sodipodi:docname="barrier_stile.svg" inkscape:output_extension="org.inkscape.output.svg.inkscape"
	 xmlns="http://www.w3.org/2000/svg" xmlns:xlink="http://www.w3.org/1999/xlink" x="0px" y="0px" viewBox="38 -218 580 580"
	 style="enable-background:new 38 -218 580 580;" xml:space="preserve">
<style type="text/css">
	.st0{opacity:0.5;enable-background:new    ;}
	.st1{fill:#CE2020;}
</style>
<path class="st0" d="M221.2-110.8h-54.1c-5.9,0-11.5,2.3-15.7,6.5c-4.2,4.2-6.5,9.8-6.4,15.7l1.6,350.5c0,9.8,6.5,18.3,15.8,21.1
	c2.1,0.6,4.2,0.9,6.3,0.9c7.3,0,14.3-3.6,18.5-10l52.6-80.1c2.4-3.6,3.6-7.8,3.6-12.1V-88.7C243.4-100.9,233.5-110.8,221.2-110.8z"
	/>
<path class="st0" d="M496.3-104.3c-4.2-4.2-9.8-6.5-15.7-6.5h-54.1c-12.2,0-22.1,9.9-22.1,22.1v270.4c0,4.3,1.3,8.5,3.6,12.1
	l52.6,80.1c4.2,6.3,11.2,10,18.5,10c2.1,0,4.2-0.3,6.3-0.9c9.4-2.8,15.8-11.3,15.8-21.1l1.6-350.5
	C502.8-94.4,500.5-100.1,496.3-104.3z"/>
<defs>
	
	
		<inkscape:perspective  sodipodi:type="inkscape:persp3d" inkscape:vp_x="0 : 290 : 1" inkscape:vp_y="0 : 1000 : 0" inkscape:vp_z="580 : 290 : 1" id="perspective24" inkscape:persp3d-origin="290 : 193.33333 : 1">
		</inkscape:perspective>
	
		<inkscape:perspective  sodipodi:type="inkscape:persp3d" inkscape:vp_x="0 : 306.58551 : 1" inkscape:vp_y="0 : 1000 : 0" inkscape:vp_z="612.164 : 306.58551 : 1" id="perspective2683" inkscape:persp3d-origin="306.082 : 204.39034 : 1">
		</inkscape:perspective>
	
		<inkscape:perspective  sodipodi:type="inkscape:persp3d" inkscape:vp_x="0 : 306.58551 : 1" inkscape:vp_y="0 : 1000 : 0" inkscape:vp_z="612.164 : 306.58551 : 1" id="perspective2953" inkscape:persp3d-origin="306.082 : 204.39034 : 1">
		</inkscape:perspective>
	
		<inkscape:perspective  sodipodi:type="inkscape:persp3d" inkscape:vp_x="0 : 245.89301 : 1" inkscape:vp_y="0 : 1000 : 0" inkscape:vp_z="361.87201 : 245.89301 : 1" id="perspective3071" inkscape:persp3d-origin="180.936 : 163.92867 : 1">
		</inkscape:perspective>
	
		<inkscape:perspective  sodipodi:type="inkscape:persp3d" inkscape:vp_x="0 : 0.5 : 1" inkscape:vp_y="0 : 1000 : 0" inkscape:vp_z="1 : 0.5 : 1" id="perspective3724" inkscape:persp3d-origin="0.5 : 0.33333333 : 1">
		</inkscape:perspective>
</defs>
<sodipodi:namedview  gridtolerance="10.0" objecttolerance="10.0" guidetolerance="10.0" showgrid="false" id="base" inkscape:zoom="0.35355339" bordercolor="#666666" pagecolor="#ffffff" borderopacity="1.0" inkscape:cx="529.79508" inkscape:cy="164.66358" inkscape:window-x="271" inkscape:window-y="117" inkscape:window-height="708" inkscape:pageopacity="0.0" inkscape:current-layer="svg2" inkscape:window-width="770" inkscape:pageshadow="2" inkscape:window-maximized="0">
	</sodipodi:namedview>
<path id="path2323" d="M917.3-181.2"/>
<path id="path2329" d="M917.3-181.2"/>
<path class="st1" d="M529.3-130.9H120.6c-6.1,0-11.1,5-11.1,11.1v393.1c0,6.1,5,11.1,11.1,11.1h54.1c6.1,0,11.1-5,11.1-11.1V-79.2
	h278.3v351.7c0,6.1,5,11.1,11.1,11.1h54.1c6.1,0,11.1-5,11.1-11.1v-392.4C540.4-126,535.4-130.9,529.3-130.9z"/>
</svg>
