<?xml version="1.0" encoding="utf-8"?>
<!-- Generator: Adobe Illustrator 19.0.0, SVG Export Plug-In . SVG Version: 6.00 Build 0)  -->
<svg version="1.1"
	 id="svg2" xmlns:dc="http://purl.org/dc/elements/1.1/" xmlns:cc="http://creativecommons.org/ns#" xmlns:rdf="http://www.w3.org/1999/02/22-rdf-syntax-ns#" xmlns:svg="http://www.w3.org/2000/svg" xmlns:sodipodi="http://sodipodi.sourceforge.net/DTD/sodipodi-0.dtd" xmlns:inkscape="http://www.inkscape.org/namespaces/inkscape" inkscape:version="0.47 r22583" sodipodi:version="0.32" sodipodi:docname="food_fastfood2.svg" inkscape:output_extension="org.inkscape.output.svg.inkscape"
	 xmlns="http://www.w3.org/2000/svg" xmlns:xlink="http://www.w3.org/1999/xlink" x="0px" y="0px" viewBox="38 -218 580 580"
	 style="enable-background:new 38 -218 580 580;" xml:space="preserve">
<style type="text/css">
	.st0{opacity:0.5;fill:#AA4907;enable-background:new    ;}
</style>
<path id="path4780" sodipodi:nodetypes="ccccccsccccccccscccccccscccccc" class="st0" d="M328.4-156.9c-51.8,0-105.4,13.9-150,37.5
	C134.2-96,98.8-62.9,83.3-23.9c-8,7.3-13.9,15.3-17.1,23.7c-4.3,10.6-6.5,23.5-6.5,36.9c0,12.4,1.9,25.3,6,37
	c-1.3,8-1.9,16-1.9,23.8c0,12.9,1.6,25.3,4.1,36c2.5,10.7,5.9,19.7,9.9,26l0.3,0.5c1.1,1.9,2.3,3.7,3.5,5.6
	c1,14.7,3.4,30.7,8.6,41.4l1,2.2h0c12.6,25,42.7,45.8,83.7,60.9c42.2,15.5,96.2,24.8,155,24.8s112.8-9.3,155-24.8
	c41-15.1,71.1-35.9,83.7-60.9h0l1.1-2.2c3.1-6.3,5.1-14.4,6.5-23.1c1.3-8.3,2.1-17.1,2.4-25c3.8-6.3,7-15,9.5-25.3
	c2.5-10.7,4.1-23.1,4.1-36c0-7.8-0.6-15.8-1.9-23.7c4.1-11.8,6-24.7,6-37.1c0-13.5-2.2-26.5-6.6-37.1c-2.9-7.4-7.8-14.3-14.4-20.9
	c-13.9-40.6-49.3-74.3-94.1-98C436.1-143.1,381.3-156.9,328.4-156.9z"/>
<sodipodi:namedview  gridtolerance="10.0" objecttolerance="10.0" guidetolerance="10.0" showgrid="false" id="base" inkscape:zoom="0.65172414" bordercolor="#666666" pagecolor="#ffffff" borderopacity="1.0" inkscape:cx="386.22617" inkscape:cy="170.17714" inkscape:window-x="11" inkscape:window-y="13" inkscape:window-height="947" inkscape:pageopacity="0.0" inkscape:current-layer="svg2" inkscape:window-width="1048" inkscape:pageshadow="2" inkscape:window-maximized="0">
	</sodipodi:namedview>
<defs>
	
	
		<inkscape:perspective  sodipodi:type="inkscape:persp3d" inkscape:vp_x="0 : 290 : 1" inkscape:vp_y="0 : 1000 : 0" inkscape:vp_z="580 : 290 : 1" id="perspective2441" inkscape:persp3d-origin="290 : 193.33333 : 1">
		</inkscape:perspective>
	
		<inkscape:perspective  sodipodi:type="inkscape:persp3d" inkscape:vp_x="0 : 30 : 1" inkscape:vp_y="0 : 1000 : 0" inkscape:vp_z="60 : 30 : 1" id="perspective3452" inkscape:persp3d-origin="30 : 20 : 1">
		</inkscape:perspective>
	
		<inkscape:perspective  sodipodi:type="inkscape:persp3d" inkscape:vp_x="0 : 526.18109 : 1" inkscape:vp_y="0 : 1000 : 0" inkscape:vp_z="744.09448 : 526.18109 : 1" id="perspective4471" inkscape:persp3d-origin="372.04724 : 350.78739 : 1">
		</inkscape:perspective>
	
		<inkscape:perspective  sodipodi:type="inkscape:persp3d" inkscape:vp_x="0 : 6 : 1" inkscape:vp_y="0 : 1000 : 0" inkscape:vp_z="12 : 6 : 1" id="perspective4668" inkscape:persp3d-origin="6 : 4 : 1">
		</inkscape:perspective>
	
		<inkscape:perspective  sodipodi:type="inkscape:persp3d" inkscape:vp_x="0 : 16 : 1" inkscape:vp_y="0 : 1000 : 0" inkscape:vp_z="32 : 16 : 1" id="perspective4904" inkscape:persp3d-origin="16 : 10.666667 : 1">
		</inkscape:perspective>
	
		<inkscape:perspective  sodipodi:type="inkscape:persp3d" inkscape:vp_x="0 : 16 : 1" inkscape:vp_y="0 : 1000 : 0" inkscape:vp_z="32 : 16 : 1" id="perspective5233" inkscape:persp3d-origin="16 : 10.666667 : 1">
		</inkscape:perspective>
	
		<inkscape:perspective  sodipodi:type="inkscape:persp3d" inkscape:vp_x="0 : 250 : 1" inkscape:vp_y="0 : 1000 : 0" inkscape:vp_z="500 : 250 : 1" id="perspective5412" inkscape:persp3d-origin="250 : 166.66667 : 1">
		</inkscape:perspective>
	
		<inkscape:perspective  sodipodi:type="inkscape:persp3d" inkscape:vp_x="0 : 204.28572 : 1" inkscape:vp_y="0 : 1000 : 0" inkscape:vp_z="405.71429 : 204.28572 : 1" id="perspective5571" inkscape:persp3d-origin="202.85715 : 136.19048 : 1">
		</inkscape:perspective>
	
		<inkscape:perspective  sodipodi:type="inkscape:persp3d" inkscape:vp_x="0 : 64 : 1" inkscape:vp_y="0 : 1000 : 0" inkscape:vp_z="128 : 64 : 1" id="perspective6552" inkscape:persp3d-origin="64 : 42.666667 : 1">
		</inkscape:perspective>
	
		<inkscape:perspective  sodipodi:type="inkscape:persp3d" inkscape:vp_x="0 : 0.5 : 1" inkscape:vp_y="0 : 1000 : 0" inkscape:vp_z="1 : 0.5 : 1" id="perspective4729" inkscape:persp3d-origin="0.5 : 0.33333333 : 1">
		</inkscape:perspective>
</defs>
<path id="path5" d="M328.4-156.9c-51.8,0-105.4,13.9-150,37.5C134.2-96,98.8-62.9,83.3-23.9c-8,7.3-13.9,15.3-17.1,23.7
	c-4.3,10.6-6.5,23.5-6.5,36.9c0,12.4,1.9,25.3,6,37c-1.3,8-1.9,16-1.9,23.8c0,12.9,1.6,25.3,4.1,36c2.5,10.7,5.9,19.7,9.9,26
	l0.3,0.5c1.1,1.9,2.3,3.7,3.5,5.6c1,14.7,3.4,30.7,8.6,41.4l1,2.2h0c12.6,25,42.7,45.8,83.7,60.9c42.2,15.5,96.2,24.8,155,24.8
	s112.8-9.3,155-24.8c41-15.1,71.1-35.9,83.7-60.9h0l1.1-2.2c3.1-6.3,5.1-14.4,6.5-23.1c1.3-8.3,2.1-17.1,2.4-25
	c3.8-6.3,7-15,9.5-25.3c2.5-10.7,4.1-23.1,4.1-36c0-7.8-0.6-15.8-1.9-23.7c4.1-11.8,6-24.7,6-37.1c0-13.5-2.2-26.5-6.6-37.1
	c-2.9-7.4-7.8-14.3-14.4-20.9c-13.9-40.6-49.3-74.3-94.1-98C436.1-143.1,381.3-156.9,328.4-156.9z M328.4-149.3
	c58.9,0,120.7,17.6,167.4,47.2c23.4,14.8,43,32.5,56.7,52.4c13.7,19.9,21.5,42,21.5,65.6c0,9-2.5,17-7.1,24.4
	c-4.2,6.8-10.4,13.1-18,18.8c-0.8-0.5-1.6-0.7-2.2-0.8c-0.7-0.1-1.3-0.2-1.8-0.2c-0.6,0-1,0-1.1,0.1h-0.2l-0.1,0
	c-7.2,1.3-12.4,3.4-17.3,5.5c-4.9,2.1-9.5,4.1-16.1,5.6c-5.6,1.3-12.6,2.5-19,5.5c-3.2,1.5-6.2,3.6-8.6,6.4
	c-1.8,2.2-3.3,4.8-4.2,7.8c-17.9,4.6-37,8.2-55.8,10.9c-36.5,5.2-71.9,6.9-96.6,6.9c-36.5,0-96.2-6.7-147.2-21
	c-0.7-1.2-1.5-2.3-2.4-3.3c-4-4.1-9.4-5.9-14.6-7.4c-5.1-1.5-10.2-2.5-13.1-3.8c-4-1.7-9.4-5.3-15.1-8.6c-5.8-3.2-12-6.3-18.7-6.4
	c-1.6,0-3.3,0.2-4.9,0.7c-0.3-0.2-0.7-0.4-1-0.6c-8.3-5.7-15-11.7-19.4-18.2c-4.5-6.4-6.8-13.1-6.8-20.3c0-23.2,7.8-45.2,21.5-65.3
	c20.5-30.1,54.4-55.8,94.3-73.8C238.5-138.8,284.2-149.3,328.4-149.3z M115,64.3c4.1-0.1,9.5,2.3,14.9,5.4c5.4,3.1,10.8,6.8,16,9
	c2.8,1.2,5.9,1.9,9.1,2.8c4.8,1.2,9.8,2.6,13.2,4.6c1.7,1,2.9,2.1,3.8,3.3c0.7,1.1,1.2,2.2,1.3,3.8h0c-4.6,0-10.2-1.8-15.9-2.5
	c-5.7-0.6-11.7-0.9-17.7-0.9c-2.4,0-4.8,0-7.2,0.2c-7,0.3-13.5,2.3-19.8,5.1c-3.3,1.5-6,3.7-8.4,5.3c-1.2,0.8-2.4,1.5-3.4,1.9
	c-0.4-1.2-0.9-2.3-1.3-3.3c-0.8-1.9-1.3-3.5-1.6-5.5c0-0.2,0-0.4,0-0.7c0-1.3,0.5-3.2,1.1-5.2c0.6-2,1.4-3.9,1.9-5.9
	c1.1-4.9,2-6.8,3.3-8.7c1.3-1.8,3.3-3.8,6.3-7.4l0.8-0.5C112.5,64.5,113.7,64.3,115,64.3z M543.3,66.1c-0.1,1.7-0.2,3.9-0.3,6.2
	c-0.2,3.8-0.4,7.9-0.4,11.1c0,0.7,0,1.3,0.1,1.9c0.1,2.3,0.5,5.1,0.9,8.2c0.4,3.1,0.8,6.3,0.8,8.9c0,2.3-0.4,4.1-0.7,4.4
	c-0.5,0.9-1.1,1.3-2,1.8c-0.9,0.4-2.2,0.6-3.8,0.6c-3.6,0-8.5-1.3-13-3c-4.5-1.7-8.6-3.7-11.2-4.8c-5.9-2.7-11.9-6.3-19.2-7.8
	c-1.6-0.3-3.1-0.4-4.5-0.4c-2,0-3.6,0.2-4.8,0.3v0c0.5-3.1,1.6-5.4,3.1-7.2c2.3-2.7,5.8-4.6,10-6.1c4.2-1.4,9-2.3,13.4-3.3
	c7.3-1.7,12.5-4,17.3-6C533.6,69,537.7,67.3,543.3,66.1z M77.1,89c1,1.6,2,3.1,3.1,4.5c29.8,43.7,129.4,75.8,247.8,75.8
	c118.3,0,217.9-32.1,247.8-75.8h0c1.1-1.4,2.1-2.9,3.1-4.5c-16.7,48-92.5,86.4-190.5,97.7c0.2-0.5,0.3-1,0.3-1.6l0.3-2.1l-1.6-1.3
	c-4.3-3.5-9.8-4.2-15-4.3c-6.4,0-12.8,1.2-17.1,1.8c-9,1.3-18.8,3.4-27.8,3.3c-1.6,0-3.2-0.1-4.8-0.2c-10.4-0.9-20.6-3.8-32-5.4
	c-2.1-0.3-4.2-0.5-6.3-0.5c-3.4,0-7,0.6-10.5,2.5c-1.3,0.7-2.9,1.8-4.4,3.2c-0.7,0.7-1.5,1.5-2.1,2.5c-0.3,0.6-0.7,1.2-0.9,2
	C169,175.1,93.7,136.8,77.1,89z M570.7,164.2c-0.3,4.7-0.8,9.6-1.4,14.4c-1.2,8.6-3,16.9-5.5,22.8h-0.1l-1,2.3
	c-10.2,22.9-39.2,44.1-80.4,59.2c-41.2,15.1-94.4,24.3-152.4,24.3s-111.2-9.1-152.4-24.3c-41.2-15.1-70.2-36.3-80.4-59.2l-1-2.3H96
	c-2.5-5.9-4.3-14.2-5.5-22.8c-0.4-3-0.7-6-1-9c36,42.6,129.2,72.9,238.4,72.9C441.9,242.5,538.2,209.6,570.7,164.2z M284.5,184.2
	c1.6,0,3.4,0.2,5.3,0.4c10.7,1.5,21,4.4,32.3,5.4c1.8,0.2,3.6,0.2,5.4,0.2c10.1,0,20.2-2.2,28.9-3.4c4.5-0.6,10.6-1.8,16-1.8
	c2.9,0,5.5,0.3,7.5,1c-0.2,0.2-0.4,0.4-0.7,0.6c-2.1,1.7-5.9,3.5-9.8,5.3c-3.9,1.8-8,3.6-11.1,6.4c-3.9,3.6-7.5,8.4-11.3,12.6
	c-3.8,4.2-7.7,7.8-11.3,9.3c-1.5,0.6-2.9,0.9-4.4,0.9c-3.8,0-8.2-1.9-12.3-4.8c-4.2-2.9-8-6.6-10.9-9.8c-3.8-4.1-8.5-8.5-13.9-12.1
	c-5.5-3.6-11.7-6.4-18.6-6.8l-0.8-0.1c0.2-0.2,0.4-0.4,0.7-0.6c0.7-0.6,1.6-1.1,2.2-1.4C279.8,184.6,281.9,184.2,284.5,184.2z"/>
</svg>
