<?xml version="1.0" encoding="utf-8"?>
<!-- Generator: Adobe Illustrator 19.0.0, SVG Export Plug-In . SVG Version: 6.00 Build 0)  -->
<svg version="1.1" id="Layer_1" xmlns="http://www.w3.org/2000/svg" xmlns:xlink="http://www.w3.org/1999/xlink" x="0px" y="0px"
	 viewBox="0 0 146 144" style="enable-background:new 0 0 146 144;" xml:space="preserve">
<style type="text/css">
	.st0{fill:#788E9A;}
	.st1{fill:#8EA2AC;}
	.st2{fill:#FEDE80;}
	.st3{fill:#FEEAB0;}
	.st4{fill:#546E7A;}
	.st5{fill:#FE9E00;}
	.st6{fill:#FE9F01;}
	.st7{fill:#0298E2;}
	.st8{fill:#28B4F4;}
	.st9{fill:#FEB000;}
	.st10{fill:#FEFDFC;}
	.st11{fill:#FEFEFD;}
</style>
<g>
	<path class="st0" d="M131,128.7c2.7,0,5.4,0.1,8.1,0.1c0,2.2-0.1,4.4,0,6.6c0.1,1.3-0.3,1.6-1.6,1.6c-12.9-0.1-25.8,0-38.7,0
		c-8.2,0-16.4,0-24.5,0c-1.2-2.7-1.1-5.4-0.1-8.2c0.8-0.7,1.9-0.7,2.9-0.7c4.4,0,8.8-0.1,13.1,0c1.4,0,2.9-0.1,4.3,0
		c1.4-0.1,2.9,0,4.3,0c9.8-0.2,19.7-0.1,29.5-0.1C129.3,128,130.2,128.1,131,128.7z"/>
	<path class="st1" d="M74.3,128.9c0,2.7,0,5.4,0,8c-20.9,0-41.8,0-62.7,0.1c-1.8,0-2.2-0.4-2-2.1c0.2-2,0-4,0-6
		c2.7,0,5.4-0.1,8.1-0.1c0.8-0.6,1.7-0.7,2.6-0.7c9.8,0,19.6-0.1,29.5,0.1c1.4,0,2.9-0.1,4.3,0c1.4-0.1,2.8,0,4.2,0
		c4.3-0.1,8.7,0,13,0c0.9,0,1.8,0,2.7,0.5C74.1,128.6,74.2,128.7,74.3,128.9z"/>
	<path class="st2" d="M131,128.7c-10.8,0-21.6,0-32.4,0c-0.8-0.8-0.8-1.8-0.8-2.8c0-7,0-14.1,0-21.1c0-0.9,0-1.8,0.5-2.7
		c0.4-0.5,0.9-0.7,1.5-0.8c1.4-0.2,2.1-0.9,1.9-2.4c-0.2-1.7-1.4-1.7-2.6-1.7c-4,0-7.9,0-11.9,0c-3.4,0-6.7,0-10.1,0
		c-1.1,0-2.2,0-3.1-0.8c-0.8-1.3-0.6-2.8-0.6-4.2c0-14.1,0-28.3,0-42.4c0-5.5,0.4-5.1-5.2-5.1c-15.4,0-30.8,0-46.2,0
		c-1.5,0-3.1,0.3-4.3-0.8c0-1.3,0-2.7,0-4c0.8-0.8,1.8-0.8,2.8-0.8c17.9,0,35.9-0.1,53.8,0c17.9-0.2,35.9-0.1,53.8,0
		c1,0,2,0,2.8,0.8C131,69.5,131,99.1,131,128.7z"/>
	<path class="st3" d="M17.8,43.8c17.9,0,35.7,0.1,53.6,0c2.4,0,3.1,0.6,3.1,3.1c-0.1,16.5-0.1,33-0.1,49.5c-0.1,0.1-0.2,0.2-0.3,0.3
		c-1.2,0.6-2.5,0.5-3.7,0.5c-6.9,0-13.8,0-20.6,0c-1.2,0-2.7-0.1-2.8,1.7c-0.1,1.1,0.1,2,1.4,2.3c0.7,0.1,1.5,0.2,2,0.9
		c0.6,1,0.5,2.1,0.5,3.2c0,6.7,0,13.4,0,20.1c0,1.2,0.1,2.4-0.8,3.3c-10.8,0-21.6,0-32.4,0c0-27.2,0-54.4,0-81.6
		C17.7,46,17.8,44.9,17.8,43.8z"/>
	<path class="st0" d="M74.4,39.7c-16.6,0-33.2,0.1-49.8,0.1c-2.3,0-4.6,0-6.8,0c-1.5-1.9-4.4-2.9-4.1-6.2c0.1-1.6,0.5-2,2-2
		c5,0.1,10.1,0,15.1,0c1.4-1,3.1-0.6,4.6-0.7c2.4-0.1,4.7-0.1,7.1,0c1.6,0,3.2-0.3,4.7,0.7c3.3,0,6.6,0,9.9,0c1.4-0.9,2.9-0.9,4.3,0
		c4.3,0.1,8.7,0.1,13,0.2C75.6,34.4,75.6,37.1,74.4,39.7z"/>
	<path class="st4" d="M74.4,39.7c0-2.6,0-5.3,0-7.9c0.2-0.1,0.3-0.1,0.5-0.2c1.6-1,3.2-0.9,4.7,0c3,0,5.9,0,8.9,0
		c0.6-0.5,1.3-0.7,2.1-0.7c3.8,0.2,7.8-0.8,11.5,0.7c0.9,0,1.9,0,2.8,0c4.3-1.2,8.6-1.2,13,0c4.8,0,9.5,0,14.3,0.1
		c0.9,0,2.4-0.6,2.7,0.5c0.3,1.4,0.8,3.1-0.7,4.5c-1.1,1-2.2,2.1-3.2,3.2c-17.9,0-35.7,0-53.6,0C76.4,39.8,75.4,39.7,74.4,39.7z"/>
	<path class="st5" d="M47.2,31.6c-1.6,0-3.1,0-4.7,0c-1.2-1.6-0.7-3.5-0.7-5.3c0-2.1-1-2.5-2.8-2.5c-1.8,0-2.8,0.4-2.8,2.5
		c0,1.8,0.5,3.7-0.7,5.3c-1.6,0-3.1,0-4.7,0c0-6.1,0.1-12.1,0-18.2c0-1.8,0.7-2.1,2.2-2c1.3,0.1,2.8-0.4,2.5,1.9
		c-0.2,1.2,0.1,2.5-0.1,3.8c-0.3,2.1,0.7,2.5,2.5,2.4c4.5-0.1,4.5,0,4.5-4.5c0-0.4,0.1-0.9,0-1.3c-0.3-1.8,0.3-2.5,2.3-2.5
		c2,0,2.5,0.6,2.5,2.6C47.1,19.8,47.2,25.7,47.2,31.6z"/>
	<path class="st6" d="M61.4,31.6c-1.4,0-2.9,0-4.3,0c-6.1-2.7-8.5-9.9-5.2-15.8c1.5-2.8,4-4.2,7.2-4.3c3.3,0,5.9,1.3,7.5,4.3
		C69.8,21.7,67.5,28.9,61.4,31.6z"/>
	<path class="st5" d="M102.1,31.6c-4.5,0-9.1,0-13.6,0c0-6,0.1-11.9,0-17.9c0-1.7,0.3-2.4,2.2-2.3c3.3,0.2,6.6,0.1,9.8,0
		c1.3,0,1.8,0.4,1.7,1.7c-0.1,1.2,0,2.2-1.7,2c-1.8-0.1-3.7,0.1-5.5,0c-1.8-0.1-1.7,1-1.8,2.3c0,1.4,0.1,2.3,1.8,2.1
		c1.1-0.1,2.2,0,3.3,0c1.2,0,2.5-0.4,2.5,1.7c0,2-1,1.9-2.3,1.9c-0.8,0-1.5,0-2.3,0c-2.8,0-3.7,1.2-2.9,4c0.3,0.9,0.9,0.9,1.5,0.9
		c1.3,0,2.5,0,3.8,0C102.7,28,102,27.5,102.1,31.6z"/>
	<path class="st5" d="M79.6,31.6c-1.6,0-3.2,0-4.7,0c0-4.8-0.1-9.6,0-14.4c0-1.7-0.5-2.3-2.1-2.1c-0.8,0.1-1.7,0-2.5,0
		c-1.5,0-1-1.2-1.1-2c-0.1-0.9-0.1-1.7,1.2-1.7c4.6,0,9.2,0.1,13.9,0c1.5,0,1.3,0.9,1.3,1.8c0,0.9,0.3,2-1.2,1.9c-0.1,0-0.2,0-0.3,0
		c-4.4,0.4-4.4,0.4-4.4,4.8C79.6,23.9,79.6,27.8,79.6,31.6z"/>
	<path class="st5" d="M117.9,31.6c-4.3,0-8.6,0-13,0c0-5.9,0.1-11.8,0-17.7c0-1.9,0.5-2.5,2.5-2.6c2.3-0.1,2.4,0.9,2.3,2.7
		c-0.1,4,0.1,7.9-0.1,11.9c-0.1,1.7,0.6,2.2,2.2,2.1c0.8-0.1,1.7,0,2.5,0C117.9,28,117.9,28,117.9,31.6z"/>
	<path class="st7" d="M90.5,128.8c-5.4,0-10.8,0.1-16.2,0.1c0,0,0-0.1,0-0.1c-1-1-0.8-2.3-0.8-3.6c0-5.6,0-11.1,0-16.7
		c0-2.9-0.2-3.1-3.2-3.2c-2.9,0-5.9,0-8.8,0c-1.2,0-2.4,0.1-3.4-0.6c-0.7-0.9-0.7-1.9,0-2.8c0.9-0.7,1.9-0.7,2.9-0.7
		c4.5,0,8.9-0.1,13.4,0c4.5-0.1,9,0,13.5,0c1,0,2,0,2.9,0.7c0.6,0.7,0.7,1.5,0.7,2.4c0.1,7.3,0.1,14.6,0,21.9
		C91.3,127.1,91.2,128,90.5,128.8z"/>
	<path class="st2" d="M90.5,128.8c0-8.9,0-17.7,0-26.6c1.3-1.3,2.7-1.1,4.2-0.2c0.6,0.9,0.6,1.9,0.6,2.9c0,6.9,0,13.9,0,20.8
		c0,1.1,0.1,2.2-0.8,3.1C93.2,128.7,91.9,128.8,90.5,128.8z"/>
	<path class="st5" d="M94.6,128.7c0-8.8,0-17.6,0-26.5c1.3-1.4,2.7-1.4,4,0c0,8.8,0,17.6,0,26.5C97.3,128.7,95.9,128.7,94.6,128.7z"
		/>
	<path class="st8" d="M58.3,104.5c4.6,0,9.2,0.1,13.9,0c1.8,0,2.3,0.6,2.3,2.3c-0.1,7.3,0,14.6,0,21.9c-5.4,0-10.8,0-16.2,0
		c-0.8-0.9-0.8-2-0.8-3.1c0-6,0-12.1,0-18.1C57.4,106.5,57.3,105.3,58.3,104.5z"/>
	<path class="st9" d="M50.1,128.7c0-8.8,0-17.7,0-26.5c1.3-1.5,2.7-1.1,4.2-0.3c0.6,0.8,0.7,1.7,0.7,2.6c0,7.1,0,14.2,0,21.4
		c0,1,0,2-0.8,2.8C52.8,128.7,51.4,128.7,50.1,128.7z"/>
	<path class="st3" d="M54.1,128.7c0-8.8,0-17.7,0-26.5c1.3-1.4,2.6-1.3,4-0.2c0,0.8,0.1,1.6,0.1,2.4c0,8.1-0.1,16.2-0.1,24.3
		C56.8,128.8,55.5,128.7,54.1,128.7z"/>
	<path class="st7" d="M116.9,120.7c-2.8,0-5.6-0.1-8.3,0c-1.4,0-1.9-0.3-1.9-1.8c0.1-4.3,0-8.6,0.1-12.9c0.1-5.3,4.7-9.6,10-9.6
		c5.4,0,10,4.2,10.1,9.5c0.1,4.4,0,8.8,0.1,13.1c0,1.4-0.5,1.7-1.8,1.7C122.5,120.7,119.7,120.7,116.9,120.7z"/>
	<path class="st7" d="M88.4,64.1c-2.8,0-5.6-0.1-8.3,0c-1.4,0-1.8-0.4-1.7-1.7c0.1-1.4,0-2.9,0-4.3c0.1-5.8,4.5-10.3,10.2-10.2
		c5.6,0,9.9,4.5,10,10.2c0.1,6,0.1,6-6,6C91.2,64.1,89.8,64.1,88.4,64.1z"/>
	<path class="st7" d="M88.4,88.3c-2.9,0-5.7,0-8.6,0c-1.1,0-1.5-0.3-1.4-1.4c0.1-1.8-0.1-3.7,0-5.5c0.3-5,4.8-9.2,9.9-9.2
		c5.3,0,9.9,4,10.2,9.2c0.5,7,0.5,7-6.4,7C90.9,88.3,89.7,88.3,88.4,88.3z"/>
	<path class="st7" d="M116.8,88.3c-2.7,0-5.4-0.1-8.1,0c-1.7,0.1-2.2-0.6-2-2.1c0.1-1.3,0-2.7,0-4c0.1-5.6,4.6-10.1,10.2-10
		c5.6,0,10,4.4,10.1,10.1c0.1,6.1,0.1,6.1-5.9,6.1C119.7,88.3,118.2,88.3,116.8,88.3z"/>
	<path class="st7" d="M116.6,64.1c-2.8,0-5.6-0.1-8.3,0c-1.2,0-1.6-0.4-1.6-1.6c0.1-1.5,0-3,0-4.5c0.1-5.6,4.5-10.1,10.1-10.1
		c5.6,0,10,4.4,10.1,10.1c0.1,6.1,0.1,6.1-6.1,6.1C119.4,64.1,118,64.1,116.6,64.1z"/>
	<path class="st4" d="M98.6,102.3c-1.3,0-2.7,0-4,0c-1.3,0-2.7-0.1-4-0.1c-5.4,0-10.8-0.1-16.2-0.1c-1.1-1.8-1.2-3.7,0-5.5
		c0,0,0-0.1,0-0.1c8.6,0,17.2,0.1,25.7,0c1.7,0,2.9,0.1,2.6,2.3c-0.2,1.7,0.6,4-2.6,3.4C99.6,102.1,99.1,102.2,98.6,102.3z"/>
	<path class="st8" d="M31.8,120.7c-2.8,0-5.6,0-8.3,0c-1.2,0-1.8-0.3-1.8-1.7c0.1-4.4-0.1-8.8,0.1-13.1c0.2-5.2,4.8-9.5,10-9.5
		c5.3,0,10,4.2,10.2,9.6c0.2,4.4,0,8.8,0.1,13.1c0,1.2-0.4,1.6-1.6,1.6C37.6,120.7,34.7,120.7,31.8,120.7z"/>
	<path class="st8" d="M31.7,64.1c-2.7,0-5.4-0.1-8.1,0c-1.6,0.1-2.1-0.5-1.9-2c0.2-2.3-0.2-4.5,0.4-6.8c1.4-4.7,5.9-7.9,10.7-7.4
		c4.9,0.5,8.8,4.7,9.1,9.6c0.3,6.5,0.3,6.5-6.2,6.5C34.4,64.1,33.1,64.1,31.7,64.1z"/>
	<path class="st8" d="M70.3,60c0,4.1,0,4.1-4.1,4.1c-4.7,0-9.4-0.1-14.1,0c-1.5,0-2.2-0.3-2-1.9c0.2-2-0.1-4.1,0.2-6
		c0.9-5.1,5.8-8.7,10.8-8.2c5.1,0.5,9,4.8,9.2,10.1C70.3,58.6,70.3,59.3,70.3,60z"/>
	<path class="st8" d="M59.9,88.3c-2.8,0-5.6,0-8.3,0c-0.6,0-1.5,0.2-1.5-0.8c0.1-3.5-0.6-7.1,1.4-10.3c2.4-3.9,6.8-5.8,11-4.7
		c4.5,1.2,7.5,4.9,7.7,9.5c0.3,6.4,0.3,6.4-6.1,6.4C62.8,88.3,61.4,88.3,59.9,88.3z"/>
	<path class="st8" d="M31.8,88.3c-2.8,0-5.6-0.1-8.3,0c-1.3,0-1.8-0.3-1.8-1.7c0.2-3.2-0.4-6.4,1.4-9.3c2.4-3.9,6.7-6,10.9-4.9
		c4.6,1.1,7.7,4.9,7.9,9.6c0.3,6.4,0.3,6.4-6.1,6.4C34.5,88.3,33.2,88.3,31.8,88.3z"/>
	<path class="st0" d="M74.4,96.5c0,1.8,0,3.7,0,5.5c-5.4,0-10.8,0-16.2,0.1c-1.3,0.1-2.7,0.1-4,0.2c-1.3,0-2.7,0-4,0
		c-0.4,0-0.8-0.2-1.2-0.1c-2.4,0.4-2.9-0.7-2.9-2.9c0-2.1,0.4-2.9,2.8-2.8C57.3,96.5,65.8,96.5,74.4,96.5z"/>
	<path class="st10" d="M35.4,31.6c0-1.3-0.1-2.7,0-4c0.1-1.4-0.8-3.6,0.6-4.2c1.6-0.7,3.8-0.2,5.7-0.2c1,0,0.7,1,0.7,1.6
		c0,2.3,0,4.5,0,6.8C40.1,31.6,37.8,31.6,35.4,31.6z"/>
	<path class="st11" d="M55.5,21.6c0.1-1.5,0-3,0.7-4.4c0.6-1.3,1.6-1.9,3-1.9c1.4,0,2.5,0.6,3,1.9c1.2,3,1.2,6.1,0,9.1
		c-0.5,1.3-1.6,1.9-3,1.9c-1.4,0-2.4-0.8-3-2C55.5,24.6,55.5,23.1,55.5,21.6z"/>
</g>
</svg>
