<?xml version="1.0" encoding="utf-8"?>
<!-- Generator: Adobe Illustrator 19.0.0, SVG Export Plug-In . SVG Version: 6.00 Build 0)  -->
<svg version="1.1"
	 id="svg2" xmlns:dc="http://purl.org/dc/elements/1.1/" xmlns:cc="http://creativecommons.org/ns#" xmlns:rdf="http://www.w3.org/1999/02/22-rdf-syntax-ns#" xmlns:svg="http://www.w3.org/2000/svg" xmlns:sodipodi="http://sodipodi.sourceforge.net/DTD/sodipodi-0.dtd" xmlns:inkscape="http://www.inkscape.org/namespaces/inkscape" inkscape:version="0.46" sodipodi:version="0.32" sodipodi:docname="money_bank2.svg" sodipodi:docbase="s:\Data\FacilityIcons" inkscape:output_extension="org.inkscape.output.svg.inkscape"
	 xmlns="http://www.w3.org/2000/svg" xmlns:xlink="http://www.w3.org/1999/xlink" x="0px" y="0px" viewBox="38 -218 580 580"
	 style="enable-background:new 38 -218 580 580;" xml:space="preserve">
<style type="text/css">
	.st0{display:none;}
	.st1{display:inline;fill:none;stroke:#757575;stroke-width:0.1;}
	.st2{fill:#6D0D68;}
</style>
<sodipodi:namedview  gridtolerance="10.0" objecttolerance="10.0" guidetolerance="10.0" showgrid="false" id="base" inkscape:zoom="0.46083856" bordercolor="#666666" pagecolor="#ffffff" borderopacity="1.0" inkscape:cx="-94.380601" inkscape:cy="403.69123" inkscape:window-x="-4" inkscape:window-y="-4" inkscape:window-height="1003" inkscape:pageopacity="0.0" inkscape:current-layer="svg2" inkscape:window-width="1400" inkscape:pageshadow="2">
	</sodipodi:namedview>
<defs>
	
	
		<inkscape:perspective  sodipodi:type="inkscape:persp3d" inkscape:vp_x="0 : 290 : 1" inkscape:vp_y="0 : 1000 : 0" inkscape:vp_z="580 : 290 : 1" id="perspective2441" inkscape:persp3d-origin="290 : 193.33333 : 1">
		</inkscape:perspective>
	
		<inkscape:perspective  sodipodi:type="inkscape:persp3d" inkscape:vp_x="0 : 30 : 1" inkscape:vp_y="0 : 1000 : 0" inkscape:vp_z="60 : 30 : 1" id="perspective3452" inkscape:persp3d-origin="30 : 20 : 1">
		</inkscape:perspective>
	
		<inkscape:perspective  sodipodi:type="inkscape:persp3d" inkscape:vp_x="0 : 526.18109 : 1" inkscape:vp_y="0 : 1000 : 0" inkscape:vp_z="744.09448 : 526.18109 : 1" id="perspective4471" inkscape:persp3d-origin="372.04724 : 350.78739 : 1">
		</inkscape:perspective>
	
		<inkscape:perspective  sodipodi:type="inkscape:persp3d" inkscape:vp_x="0 : 6 : 1" inkscape:vp_y="0 : 1000 : 0" inkscape:vp_z="12 : 6 : 1" id="perspective4668" inkscape:persp3d-origin="6 : 4 : 1">
		</inkscape:perspective>
	
		<inkscape:perspective  sodipodi:type="inkscape:persp3d" inkscape:vp_x="0 : 16 : 1" inkscape:vp_y="0 : 1000 : 0" inkscape:vp_z="32 : 16 : 1" id="perspective4904" inkscape:persp3d-origin="16 : 10.666667 : 1">
		</inkscape:perspective>
</defs>
<g id="layer3" transform="matrix(48.14969,0,0,48.14969,-536.27327,-33.306752)" inkscape:label="Layout" class="st0">
	<rect id="rect4134" x="1.8" y="-3.5" class="st1" width="10" height="10"/>
	<rect id="rect4136" x="2.8" y="-2.5" class="st1" width="8" height="8"/>
</g>
<g id="g4372" transform="translate(-166.49217,52.019299)">
</g>
<path d="M348.5,113.2v105.2c12.2-3.2,24.7-8.4,32.7-15.9c10.9-10.3,16.4-23.4,16.4-39c0-13.7-4.2-24.9-12.4-33.1
	C379.7,124.7,367.6,119,348.5,113.2z"/>
<path class="st2" d="M583.1,0L331-192c-3.6-2.7-8.5-2.7-12.1,0L66.8,0C63.4,2.6,62,7,63.4,11.1c1.4,4.1,5.2,6.8,9.5,6.8h40.4v307.9
	c0,5.5,4.5,10,10,10h403.3c5.5,0,10-4.5,10-10V17.9H577c4.3,0,8.1-2.7,9.5-6.8C587.9,7,586.5,2.6,583.1,0z M418.5,226.5
	c-15.4,14.9-40.5,25.1-70,28.8v20.4c0,12.7-10.3,23.1-23.1,23.1c-12.7,0-23.1-10.3-23.1-23.1v-19.8c-29.4-4.1-52.6-13.2-69.1-27.2
	c-18.4-15.7-28.9-37.9-31.3-66c-0.1-0.9,0.6-1.7,1.5-1.8l44.9-6.8c0.9-0.1,1.8,0.5,1.9,1.4c3.4,20.4,10.4,36.3,20.8,47.3
	c8.2,8.6,18.7,14.4,31.3,17.2V101.7c-29.1-6.4-51.6-16.3-66.9-29.5c-17.1-14.8-25.8-34.1-25.8-57.3c0-23.1,8.6-43.1,25.5-59.7
	c15.2-14.8,37.8-24.1,67.2-27.7v-14.2c0-12.7,10.3-23.1,23.1-23.1c12.7,0,23.1,10.3,23.1,23.1v15c24.9,3.8,45.8,11.3,58.7,21.4
	c16.6,13,27.1,31.5,31.3,55c0.1,0.5,0,0.9-0.3,1.3c-0.3,0.4-0.7,0.6-1.2,0.7l-46.7,5.7c-0.9,0.1-1.7-0.5-1.9-1.4
	c-2.6-14-8.1-25.1-16.2-33.2c-5.8-5.7-15.3-9.6-23.7-12.1V71.5c32.7,6.5,58.2,16.7,72.5,29.2c17.5,15.2,26.3,35.4,26.3,60.1
	C447.3,185.9,437.6,208,418.5,226.5z"/>
<path d="M258,11.9c0,13.9,4.8,25,14.4,33c7.6,6.4,17.7,11.7,29.9,15.9v-97.2c-12.7,3.2-22.9,8.5-30.3,16
	C262.7-11.1,258-0.2,258,11.9z"/>
</svg>
