<?xml version="1.0" encoding="utf-8"?>
<!-- Generator: Adobe Illustrator 19.0.0, SVG Export Plug-In . SVG Version: 6.00 Build 0)  -->
<svg version="1.1"
	 id="svg2" xmlns:dc="http://purl.org/dc/elements/1.1/" xmlns:cc="http://creativecommons.org/ns#" xmlns:rdf="http://www.w3.org/1999/02/22-rdf-syntax-ns#" xmlns:svg="http://www.w3.org/2000/svg" xmlns:sodipodi="http://sodipodi.sourceforge.net/DTD/sodipodi-0.dtd" xmlns:inkscape="http://www.inkscape.org/namespaces/inkscape" inkscape:version="0.46" sodipodi:version="0.32" sodipodi:docname="place_of_worship_islamic.svg" sodipodi:docbase="s:\Data\FacilityIcons" inkscape:output_extension="org.inkscape.output.svg.inkscape"
	 xmlns="http://www.w3.org/2000/svg" xmlns:xlink="http://www.w3.org/1999/xlink" x="0px" y="0px" viewBox="38 -218 580 580"
	 style="enable-background:new 38 -218 580 580;" xml:space="preserve">
<style type="text/css">
	.st0{fill:#3EDDCD;}
	.st1{opacity:0.5;enable-background:new    ;}
	.st2{fill:none;}
</style>
<sodipodi:namedview  gridtolerance="10.0" objecttolerance="10.0" guidetolerance="10.0" showgrid="false" id="base" inkscape:zoom="0.65172414" bordercolor="#666666" pagecolor="#ffffff" borderopacity="1.0" inkscape:cx="-57.954519" inkscape:cy="172.10413" inkscape:window-x="0" inkscape:window-y="20" inkscape:window-height="1003" inkscape:pageopacity="0.0" inkscape:current-layer="svg2" inkscape:window-width="1400" inkscape:pageshadow="2">
	</sodipodi:namedview>
<defs>
	
	
		<inkscape:perspective  sodipodi:type="inkscape:persp3d" inkscape:vp_x="0 : 290 : 1" inkscape:vp_y="0 : 1000 : 0" inkscape:vp_z="580 : 290 : 1" id="perspective2441" inkscape:persp3d-origin="290 : 193.33333 : 1">
		</inkscape:perspective>
	
		<inkscape:perspective  sodipodi:type="inkscape:persp3d" inkscape:vp_x="0 : 526.18109 : 1" inkscape:vp_y="0 : 1000 : 0" inkscape:vp_z="744.09448 : 526.18109 : 1" id="perspective2466" inkscape:persp3d-origin="372.04724 : 350.78739 : 1">
		</inkscape:perspective>
	
		<inkscape:perspective  sodipodi:type="inkscape:persp3d" inkscape:vp_x="0 : 526.18109 : 1" inkscape:vp_y="0 : 1000 : 0" inkscape:vp_z="744.09448 : 526.18109 : 1" id="perspective3333" inkscape:persp3d-origin="372.04724 : 350.78739 : 1">
		</inkscape:perspective>
	
		<inkscape:perspective  sodipodi:type="inkscape:persp3d" inkscape:vp_x="0 : 526.18109 : 1" inkscape:vp_y="0 : 1000 : 0" inkscape:vp_z="744.09448 : 526.18109 : 1" id="perspective3401" inkscape:persp3d-origin="372.04724 : 350.78739 : 1">
		</inkscape:perspective>
	
		<inkscape:perspective  sodipodi:type="inkscape:persp3d" inkscape:vp_x="0 : 526.18109 : 1" inkscape:vp_y="0 : 1000 : 0" inkscape:vp_z="744.09448 : 526.18109 : 1" id="perspective3464" inkscape:persp3d-origin="372.04724 : 350.78739 : 1">
		</inkscape:perspective>
	
		<inkscape:perspective  sodipodi:type="inkscape:persp3d" inkscape:vp_x="0 : 225 : 1" inkscape:vp_y="0 : 1000 : 0" inkscape:vp_z="450 : 225 : 1" id="perspective3581" inkscape:persp3d-origin="225 : 150 : 1">
		</inkscape:perspective>
	
		<inkscape:perspective  sodipodi:type="inkscape:persp3d" inkscape:vp_x="0 : 225 : 1" inkscape:vp_y="0 : 1000 : 0" inkscape:vp_z="450 : 225 : 1" id="perspective4312" inkscape:persp3d-origin="225 : 150 : 1">
		</inkscape:perspective>
</defs>
<g>
	<path class="st0" d="M395.8,92.9c-22.8,4.6-29.2,5-43.1,2.6c-44.8-7.7-85.4-42.5-101.5-87.1c-7.7-21.5-7.7-60.5,0.1-82.1
		c16.5-45.9,57.7-80.4,103.6-86.7c15.9-2.2,22.7-1.8,43.3,2.5c25.7,5.4,30.6,5.2,25.4-1.1c-10.2-12.3-60.7-29.1-87.3-29.1
		c-17.9,0-48.8,5.7-62.7,11.6c-38.3,16.2-73.1,53.6-86.8,93.4c-5,14.5-7.9,28.2-8.1,49.6c-0.2,21.3,3.1,37.2,8.1,51.7
		c14.4,41.7,53,81.3,93,95.3c7.8,2.7,18.8,5.9,24.5,7c27.7,5.5,66.4,0.8,93-11.4c18-8.2,30.2-17,27.5-19.6
		C423.6,88.4,410.6,89.9,395.8,92.9z"/>
	<path class="st0" d="M476.4-53.5c-10.9-0.7-21.8-0.2-32.6-0.4c-5.2-13.3-7.5-28.2-15.9-39.8c-0.7-0.5-1.5-0.9-2.4-0.7
		c-5.5,3.9-6.5,11.7-9.4,17.5c-2.6,7.2-5.1,14.5-7.7,21.8c-13.9,1.2-28.6-0.6-41.9,3.7c-3.4,4,3.5,7.1,5.8,9.7
		c8.5,7,17.8,12.9,26.3,19.8c-3.7,13.3-10.4,26.2-11.2,40.1c2.3,6.2,9.3,1.1,12.5-1.3c8.8-5.8,17-13.4,26.4-17.7
		c12.1,6.5,22.3,16.3,34.4,22.9c5.4,0.2,3.8-7.4,3.2-10.9c-2-11.1-7.5-21.8-9.3-32.6c9.9-10.2,23.1-16.6,32.5-27.2
		C487.6-53.9,479.8-52.6,476.4-53.5z"/>
</g>
<path class="st1" d="M414,144.9H245.1c-5.6,0-10.1,4.5-10.1,10.1v168.9c0,5.6,4.5,10.1,10.1,10.1H414c5.6,0,10.1-4.5,10.1-10.1V155
	C424,149.4,419.5,144.9,414,144.9z"/>
<path class="st2" d="M414,144.9H245.1c-5.6,0-10.1,4.5-10.1,10.1v168.9c0,5.6,4.5,10.1,10.1,10.1H414c5.6,0,10.1-4.5,10.1-10.1V155
	C424,149.4,419.5,144.9,414,144.9z"/>
</svg>
