<?xml version="1.0" encoding="utf-8"?>
<!-- Generator: Adobe Illustrator 19.0.0, SVG Export Plug-In . SVG Version: 6.00 Build 0)  -->
<svg version="1.1" id="Layer_1" xmlns="http://www.w3.org/2000/svg" xmlns:xlink="http://www.w3.org/1999/xlink" x="0px" y="0px"
	 viewBox="0 0 40 40" style="enable-background:new 0 0 40 40;" xml:space="preserve">
<style type="text/css">
	.st0{fill:#4FB852;}
	.st1{fill:#2DB34A;}
	.st2{fill:#FFFFFF;}
	.st3{fill:#FEFEFD;}
</style>
<g id="XMLID_1_">
	<path id="XMLID_63_" class="st0" d="M1.9,33.3c0.5,0,0.5,0,0.5-0.6c0-2.7,0-5.3,0-8c0-1.3,0.1-2.5,0.3-3.7c0.2-1.7,0.4-3.3,0.6-5
		c0.1-0.5,0.1-0.5,0.5-0.5c2.9,0,5.8,0,8.7,0c0.1,0,0.2-0.1,0.2,0c0,0.1-0.1,0.2-0.1,0.2c-0.6,0.7-1.3,1.4-1.9,2.2
		c-0.1,0.1-0.2,0.3-0.3,0.4c-0.2,0.2-0.2,0.4-0.2,0.6c0,1.4,0,2.7,0,4.1c0,0.1,0,0.2,0,0.4c0.4-0.5,0.9-1,1.3-1.5c0,0.1,0,0.1,0,0.1
		c0,0.4,0,0.4,0.4,0.4c0.3,0,0.3,0.1,0.3,0.3c0,3.3,0,6.7,0,10c0,0.5,0,0.5,0.5,0.5c0.1,0,0.2,0,0.2-0.2c0-0.1,0-0.2,0-0.3
		c0-3.7,0-7.4,0-11c0-0.3-0.1-0.4-0.3-0.4c-0.3,0.1-0.4-0.1-0.3-0.4c0-0.3,0-0.5,0-0.8c0-0.2,0-0.3,0.2-0.2c0.5,0.1,0.8-0.2,1.1-0.6
		c0.6-0.7,1.3-1.4,1.9-2c0.8-0.9,1.7-1.8,2.5-2.6c0.5-0.5,0.9-0.9,1.4-1.5c0.1-0.1,0.2-0.1,0.3,0c0.7,0.8,1.5,1.5,2.2,2.2
		c0.9,0.9,1.8,1.8,2.7,2.7c0.5,0.5,0.9,1,1.4,1.5c0.2,0.3,0.5,0.2,0.8,0.2c0.2,0,0.3,0,0.3,0.3c0,0.3,0,0.6,0,0.9
		c0,0.2-0.1,0.3-0.2,0.2c-0.3-0.1-0.3,0.1-0.3,0.4c0,3.7,0,7.5,0,11.2c0,0.2,0,0.4,0.3,0.4c0.3,0,0.3-0.1,0.3-0.4
		c0-3.4,0-6.8,0-10.2c0-0.3,0.1-0.5,0.4-0.4c0.2,0,0.2-0.1,0.2-0.2c0-0.2,0-0.4,0-0.7c0.6,0.6,1.2,1.2,1.9,1.9c0-0.2,0-0.3,0-0.4
		c0-1.3,0-2.6,0-3.9c0-0.4-0.1-0.7-0.4-0.9c-0.7-0.7-1.4-1.4-2-2.1c-0.1-0.1-0.3-0.2-0.4-0.4c0-0.1-0.1-0.1-0.1-0.2
		c0-0.1,0.1,0,0.2,0c0.2,0,0.5,0,0.7,0c2.6,0,5.3,0,7.9,0c0.2,0,0.3,0,0.3,0.3c0.2,1.7,0.4,3.4,0.6,5.1c0.3,2,0.3,4,0.3,6
		c0,2,0,4.1,0,6.1c0,0.3,0.1,0.4,0.3,0.3c0.2,0,0.6-0.1,0.7,0c0.1,0.2,0,0.5,0,0.8c0,0.9,0,1.7,0,2.6c0,0.3-0.1,0.3-0.3,0.3
		c-4.8,0-9.5,0-14.3,0c-6.9,0-13.8,0-20.7,0c-0.1,0-0.2,0-0.3,0C1.9,35.8,1.9,34.5,1.9,33.3z"/>
	<path id="XMLID_62_" class="st0" d="M19.7,9.5c0.4,0.4,0.8,0.8,1.2,1.2c0.5,0.5,0.9,1,1.4,1.5c0.5,0.5,1,1,1.5,1.6
		c0.5,0.5,1,1,1.5,1.5c0.5,0.5,1,1,1.4,1.5c0.4,0.5,0.9,0.9,1.4,1.4c0.2,0.2,0.3,0.3,0.5,0.5c0.1,0.1,0.1,0.2,0.1,0.4
		c0,0.8,0,1.6,0,2.5c-0.2-0.2-0.4-0.3-0.6-0.5c-0.4-0.4-0.8-0.8-1.2-1.2c-0.3-0.3-0.7-0.7-1-1c-0.4-0.4-0.8-0.8-1.2-1.2
		c-0.5-0.5-1-1-1.5-1.5c-0.5-0.5-1-1-1.5-1.5c-0.4-0.4-0.7-0.8-1.1-1.1c-0.4-0.4-0.8-0.8-1.1-1.1c-0.1-0.1-0.1-0.1-0.2-0.2
		c-0.1-0.1-0.2-0.1-0.3,0c-0.4,0.4-0.7,0.8-1.1,1.2c-0.5,0.6-1,1.1-1.5,1.7c-0.4,0.5-0.9,1-1.3,1.5c-0.5,0.6-1.1,1.2-1.6,1.8
		c-0.4,0.5-0.9,1-1.3,1.5c-0.3,0.4-0.7,0.8-1,1.1c-0.1,0.2-0.3,0.2-0.4,0.4c-0.1,0.1-0.1,0-0.1-0.1c0-0.8,0-1.6,0-2.5
		c0.2-0.4,0.5-0.6,0.8-0.9c0.5-0.7,1.1-1.3,1.7-1.9c0.6-0.6,1.1-1.2,1.7-1.9c0.7-0.8,1.4-1.6,2.2-2.5c0.5-0.6,1.1-1.2,1.7-1.8
		c0.1-0.1,0.2-0.3,0.3-0.3c0.1-0.1,0.2-0.2,0.2,0c0.1,0.1,0.1,0.2,0.2,0.1C19.6,9.4,19.6,9.5,19.7,9.5z"/>
	<path id="XMLID_61_" class="st1" d="M19.7,9.5c0,0-0.1-0.1-0.2,0.1c0,0.1-0.1,0-0.2,0c-0.1,0-0.1,0,0-0.1c0-0.2-0.1-0.1-0.2,0
		c0-0.1,0.1-0.3,0.1-0.5c0-2.2,0-4.5,0-6.7c0-0.1,0-0.2,0.1-0.2c0.1,0,0.3-0.1,0.3,0c0.1,0.3,0.4,0.2,0.6,0.3c0.1,0.1,0.2,0,0.2,0.1
		c0.5,0.2,1,0,1.3-0.5c0.5-0.7,1.2-0.5,1.8-0.2c0.3,0.2,0.3,0.4,0.3,0.7c0,0.9,0,1.8,0,2.7c-0.2,0-0.3-0.2-0.4-0.3
		c-0.4-0.2-0.8-0.2-1.2,0c-0.2,0.1-0.3,0.3-0.5,0.4c-0.6,0.6-1.2,0.7-1.9,0.3c-0.3-0.2-0.3,0-0.3,0.2c0,0.9,0,1.9,0,2.8
		c0,0.2,0,0.3-0.1,0.5C19.4,9.3,19.6,9.4,19.7,9.5z"/>
	<path id="XMLID_60_" class="st0" d="M10.7,18.7c0,0.8,0,1.5,0,2.3c0,0.1-0.1,0.2,0.1,0.3c-0.1,0.1-0.1,0.2-0.1,0
		C10.7,20.5,10.7,19.6,10.7,18.7C10.7,18.7,10.7,18.7,10.7,18.7z"/>
	<path id="XMLID_59_" class="st0" d="M20.3,2.5c-0.1,0-0.2,0.1-0.2-0.1C20.2,2.4,20.3,2.3,20.3,2.5z"/>
	<path id="XMLID_58_" class="st2" d="M24.5,21.3c0.1,0.1,0,0.2,0,0.3c0,3.7,0,7.5,0,11.2c0,0.1,0.1,0.4-0.1,0.4
		c-0.2,0.1-0.4,0-0.6,0c-0.1,0-0.1-0.1-0.1-0.2c0-0.3,0-0.6,0-0.9c0-3.1,0-6.2,0-9.3c0-0.3-0.1-0.4-0.3-0.4c-2.8,0-5.6,0-8.4,0
		c-0.3,0-0.3,0.1-0.3,0.4c0,3.4,0,6.8,0,10.2c0,0.1,0.1,0.3-0.1,0.3c-0.2,0-0.4,0-0.5,0c-0.1,0,0-0.2,0-0.3c0-1.6,0-3.1,0-4.7
		c0-2.2,0-4.3,0-6.5c0-0.3,0-0.4,0.3-0.4c0.2,0,0.3,0,0.3-0.3c0-0.2,0.1-0.2,0.2-0.2c0.7,0,1.4,0,2,0c2.4,0,4.7,0,7.1,0
		C24.1,21.3,24.4,21.2,24.5,21.3z"/>
	<path id="XMLID_57_" class="st0" d="M9.5,25.2c0.5,0,0.9,0,1.4,0c0.2,0,0.2,0.1,0.2,0.3c0,0.6,0,1.3,0,1.9c0,0.2-0.1,0.2-0.2,0.2
		c-0.9,0-1.8,0-2.8,0c-0.2,0-0.2-0.1-0.2-0.3c0-0.6,0-1.2,0-1.8c0-0.2,0.1-0.3,0.3-0.3C8.7,25.2,9.1,25.2,9.5,25.2z"/>
	<path id="XMLID_56_" class="st3" d="M29,28.7c0.5,0,0.9,0,1.4,0c0.2,0,0.2,0,0.2,0.2c0,0.6,0,1.3,0,1.9c0,0.2-0.1,0.3-0.3,0.3
		c-0.9,0-1.7,0-2.6,0c-0.2,0-0.3-0.1-0.3-0.3c0-0.6,0-1.3,0-1.9c0-0.2,0.1-0.2,0.2-0.2C28.1,28.7,28.6,28.7,29,28.7z"/>
	<path id="XMLID_55_" class="st0" d="M33.6,28.7c0.5,0,0.9,0,1.4,0c0.2,0,0.2,0.1,0.2,0.2c0,0.6,0,1.3,0,1.9c0,0.2-0.1,0.3-0.3,0.3
		c-0.9,0-1.7,0-2.6,0c-0.2,0-0.3-0.1-0.3-0.3c0-0.6,0-1.3,0-1.9c0-0.2,0.1-0.3,0.2-0.3C32.7,28.7,33.1,28.7,33.6,28.7z"/>
	<path id="XMLID_54_" class="st3" d="M9.6,31.3c-0.5,0-0.9,0-1.4,0c-0.2,0-0.3,0-0.3-0.3c0-0.6,0-1.2,0-1.8C7.9,29,8,29,8.2,29
		c0.9,0,1.8,0,2.7,0c0.2,0,0.3,0,0.3,0.3c0,0.6,0,1.2,0,1.8c0,0.2-0.1,0.3-0.2,0.3C10.4,31.3,10,31.3,9.6,31.3z"/>
	<path id="XMLID_53_" class="st0" d="M5,27.6c-0.4,0-0.9,0-1.3,0c-0.2,0-0.2,0-0.2-0.2c0-0.6,0-1.3,0-1.9c0-0.2,0-0.3,0.3-0.3
		c0.9,0,1.8,0,2.7,0c0.2,0,0.2,0.1,0.2,0.3c0,0.6,0,1.3,0,1.9c0,0.2-0.1,0.2-0.2,0.2C5.9,27.6,5.5,27.6,5,27.6z"/>
	<path id="XMLID_52_" class="st0" d="M29.1,24.9c0.5,0,0.9,0,1.4,0c0.2,0,0.2,0.1,0.2,0.2c0,0.6,0,1.3,0,1.9c0,0.2-0.1,0.3-0.2,0.3
		c-0.9,0-1.8,0-2.8,0c-0.2,0-0.2-0.1-0.2-0.2c0-0.6,0-1.3,0-1.9c0-0.2,0.1-0.2,0.2-0.2C28.1,25,28.6,24.9,29.1,24.9z"/>
	<path id="XMLID_51_" class="st0" d="M33.5,27.3c-0.4,0-0.9,0-1.3,0c-0.2,0-0.3,0-0.3-0.3c0-0.6,0-1.3,0-1.9c0-0.2,0-0.2,0.2-0.2
		c0.9,0,1.9,0,2.8,0c0.1,0,0.2,0.1,0.2,0.2c0,0.7,0,1.3,0,2c0,0.2-0.1,0.2-0.2,0.2C34.5,27.3,34,27.3,33.5,27.3z"/>
	<path id="XMLID_50_" class="st0" d="M5,31.3c-0.5,0-0.9,0-1.4,0c-0.2,0-0.2-0.1-0.2-0.2c0-0.6,0-1.3,0-1.9c0-0.2,0-0.2,0.2-0.2
		c0.9,0,1.8,0,2.8,0c0.2,0,0.2,0,0.2,0.2c0,0.6,0,1.3,0,1.9c0,0.2-0.1,0.2-0.2,0.2C5.9,31.3,5.5,31.3,5,31.3z"/>
	<path id="XMLID_49_" class="st2" d="M19.2,19.5c-1-0.3-1.3-2-0.7-2.8c0.4-0.6,1.1-0.8,1.5-0.5c0.5,0.4,0.7,0.9,0.7,1.6
		c0,0.8-0.3,1.4-1,1.7C19.5,19.6,19.3,19.6,19.2,19.5z"/>
	<path id="XMLID_48_" class="st0" d="M19.2,19.5c0.2,0,0.3,0,0.5,0C19.5,19.7,19.3,19.7,19.2,19.5z"/>
	<path id="XMLID_47_" class="st0" d="M24.5,21.3c-0.3,0.1-0.4,0-0.4-0.4c0.1,0.1,0.1,0.3,0.3,0.3C24.5,21.2,24.5,21.3,24.5,21.3z"/>
</g>
</svg>
