<?xml version="1.0" encoding="utf-8"?>
<!-- Generator: Adobe Illustrator 19.0.0, SVG Export Plug-In . SVG Version: 6.00 Build 0)  -->
<svg version="1.1"
	 id="svg2" xmlns:dc="http://purl.org/dc/elements/1.1/" xmlns:cc="http://creativecommons.org/ns#" xmlns:rdf="http://www.w3.org/1999/02/22-rdf-syntax-ns#" xmlns:svg="http://www.w3.org/2000/svg" xmlns:sodipodi="http://sodipodi.sourceforge.net/DTD/sodipodi-0.dtd" xmlns:inkscape="http://www.inkscape.org/namespaces/inkscape" inkscape:version="0.46" sodipodi:version="0.32" sodipodi:docname="accommodation_hotel2.svg" sodipodi:docbase="s:\Data\FacilityIcons" inkscape:output_extension="org.inkscape.output.svg.inkscape"
	 xmlns="http://www.w3.org/2000/svg" xmlns:xlink="http://www.w3.org/1999/xlink" x="0px" y="0px" viewBox="38 -218 580 580"
	 style="enable-background:new 38 -218 580 580;" xml:space="preserve">
<style type="text/css">
	.st0{display:none;}
	.st1{display:inline;fill:none;stroke:#757575;stroke-width:0.1;}
	.st2{fill:#FC86F6;}
</style>
<sodipodi:namedview  gridtolerance="10.0" objecttolerance="10.0" guidetolerance="10.0" showgrid="false" id="base" inkscape:zoom="0.92167712" bordercolor="#666666" pagecolor="#ffffff" borderopacity="1.0" inkscape:cx="331.95305" inkscape:cy="281.19503" inkscape:window-x="91" inkscape:window-y="25" inkscape:window-height="947" inkscape:pageopacity="0.0" inkscape:current-layer="svg2" inkscape:window-width="1048" inkscape:pageshadow="2">
	</sodipodi:namedview>
<defs>
	
	
		<inkscape:perspective  sodipodi:type="inkscape:persp3d" inkscape:vp_x="0 : 290 : 1" inkscape:vp_y="0 : 1000 : 0" inkscape:vp_z="580 : 290 : 1" id="perspective2441" inkscape:persp3d-origin="290 : 193.33333 : 1">
		</inkscape:perspective>
	
		<inkscape:perspective  sodipodi:type="inkscape:persp3d" inkscape:vp_x="0 : 30 : 1" inkscape:vp_y="0 : 1000 : 0" inkscape:vp_z="60 : 30 : 1" id="perspective3452" inkscape:persp3d-origin="30 : 20 : 1">
		</inkscape:perspective>
	
		<inkscape:perspective  sodipodi:type="inkscape:persp3d" inkscape:vp_x="0 : 526.18109 : 1" inkscape:vp_y="0 : 1000 : 0" inkscape:vp_z="744.09448 : 526.18109 : 1" id="perspective4471" inkscape:persp3d-origin="372.04724 : 350.78739 : 1">
		</inkscape:perspective>
	
		<inkscape:perspective  sodipodi:type="inkscape:persp3d" inkscape:vp_x="0 : 6 : 1" inkscape:vp_y="0 : 1000 : 0" inkscape:vp_z="12 : 6 : 1" id="perspective4668" inkscape:persp3d-origin="6 : 4 : 1">
		</inkscape:perspective>
	
		<inkscape:perspective  sodipodi:type="inkscape:persp3d" inkscape:vp_x="0 : 16 : 1" inkscape:vp_y="0 : 1000 : 0" inkscape:vp_z="32 : 16 : 1" id="perspective4904" inkscape:persp3d-origin="16 : 10.666667 : 1">
		</inkscape:perspective>
</defs>
<g id="layer3" transform="matrix(48.14969,0,0,48.14969,-536.27327,-33.306752)" inkscape:label="Layout" class="st0">
	<rect id="rect4134" x="1.8" y="-3.5" class="st1" width="10" height="10"/>
	<rect id="rect4136" x="2.8" y="-2.5" class="st1" width="8" height="8"/>
</g>
<path class="st2" d="M575.3,33.5c-0.1,0-0.2,0-0.4,0c-9.7,0-17.7,7.8-17.9,17.6l-1.3,65.5l-454.1-3l1.8-138.7
	c0.1-9.9-7.8-18-17.7-18.1c-0.1,0-0.2,0-0.2,0c-9.8,0-17.8,7.9-17.9,17.7l-3.2,249.5c-0.1,9.9,7.8,18,17.7,18.1c0.1,0,0.2,0,0.2,0
	c9.8,0,17.8-7.9,17.9-17.7l1-75l453.9,3l-1.2,61.8c-0.2,9.9,7.7,18.1,17.6,18.3c0.1,0,0.2,0,0.4,0c9.7,0,17.7-7.8,17.9-17.6
	l3.2-163.1C593.1,41.8,585.2,33.7,575.3,33.5z"/>
<path class="st2" d="M293.5,105.6h207.9c23.7,0,43-19.3,43-43c0-23.7-19.3-43-43-43H293.5c-23.7,0-43,19.3-43,43
	C250.5,86.3,269.8,105.6,293.5,105.6z"/>
<path class="st2" d="M199.9,12.5L199.9,12.5c9.6,0,18.7-3.3,25.5-9.3c6.8-6.1,10.6-14.1,10.6-22.7c0-17.7-16.2-32-36.1-32
	c-9.6,0-18.6,3.3-25.4,9.3c-6.8,6.1-10.6,14.1-10.6,22.7C163.9-1.8,180,12.5,199.9,12.5z M199.9,11.4L199.9,11.4L199.9,11.4
	L199.9,11.4z"/>
<path class="st2" d="M132.7,101.3h89.6c12.1,0,21.9-9.8,21.9-21.9s-9.8-21.9-21.9-21.9h-89.6c-12.1,0-21.9,9.8-21.9,21.9
	S120.6,101.3,132.7,101.3z"/>
</svg>
