<?xml version="1.0" encoding="utf-8"?>
<!-- Generator: Adobe Illustrator 19.0.0, SVG Export Plug-In . SVG Version: 6.00 Build 0)  -->
<svg version="1.1"
	 id="svg602" xmlns:dc="http://purl.org/dc/elements/1.1/" xmlns:cc="http://web.resource.org/cc/" xmlns:rdf="http://www.w3.org/1999/02/22-rdf-syntax-ns#" xmlns:svg="http://www.w3.org/2000/svg" xmlns:sodipodi="http://inkscape.sourceforge.net/DTD/sodipodi-0.dtd" xmlns:inkscape="http://www.inkscape.org/namespaces/inkscape" inkscape:version="0.43" sodipodi:version="0.32" sodipodi:docname="bank2.svg" sodipodi:docbase="/usr/share/qgis/svg/Garmin_Symbols"
	 xmlns="http://www.w3.org/2000/svg" xmlns:xlink="http://www.w3.org/1999/xlink" x="0px" y="0px" viewBox="38 -218 580 580"
	 style="enable-background:new 38 -218 580 580;" xml:space="preserve">
<style type="text/css">
	.st0{fill:#A600DD;}
</style>
<sodipodi:namedview  id="base" inkscape:zoom="3.6927131" bordercolor="#666666" pagecolor="#ffffff" borderopacity="1.0" inkscape:cx="51.821779" inkscape:cy="54.566925" inkscape:window-x="0" inkscape:window-y="36" inkscape:window-height="683" inkscape:pageopacity="0.0" inkscape:current-layer="g608" inkscape:window-width="1024" inkscape:pageshadow="2">
	</sodipodi:namedview>
<path class="st0" d="M435.6,82.9c-21.4-18-54.7-30.6-100-37.7l-4.1-0.7V-78.9c14.4,0.9,29.1,2.9,44.3,6.2
	c20.4,4.5,42.1,11.3,65.1,20.3v-48.9c-22.8-6.3-45.1-11-66.9-14.1c-14.3-2.1-28.5-3.4-42.5-4.1v-29.2h-52.9v30.1
	c-34.5,3.3-62.6,12.2-84.4,26.9c-27.8,18.9-41.7,44.7-41.7,77.4c0,28.3,10.1,50.4,30.3,66.2c19.9,15.6,51.8,27.1,95.8,34.6V223
	c-17.1-1.1-34.4-3.8-52-8.1c-23.6-5.8-47.7-14.4-72.3-25.8v51.6c25.6,7.8,50.3,13.6,74.1,17.6c17.5,2.9,34.2,4.7,50.2,5.5v28.9h52.9
	v-29.8c39.1-3.2,70-12,92.6-26.4c29.2-18.5,43.8-45.7,43.8-81.6C468,124.8,457.2,100.8,435.6,82.9z M231.2,18.9
	c-11.8-8.4-17.7-20.8-17.7-37.2c0-19.5,8.9-34.6,26.7-45.2c10.3-6.1,23.2-10.4,38.5-13V35.4C256.4,30.8,240.6,25.4,231.2,18.9z
	 M376.5,206.7c-11.8,7.1-26.8,11.9-44.9,14.6V95.4c23.8,5,41.4,11.8,52.7,20.5c13.6,10.3,20.4,24.5,20.4,42.7
	C404.7,179.4,395.3,195.5,376.5,206.7z"/>
</svg>
