<?xml version="1.0" encoding="utf-8"?>
<!-- Generator: Adobe Illustrator 19.0.0, SVG Export Plug-In . SVG Version: 6.00 Build 0)  -->
<svg version="1.1" id="Layer_1" xmlns="http://www.w3.org/2000/svg" xmlns:xlink="http://www.w3.org/1999/xlink" x="0px" y="0px"
	 viewBox="0 0 40 40" style="enable-background:new 0 0 40 40;" xml:space="preserve">
<style type="text/css">
	.st0{fill:#293077;}
	.st1{fill:#F7F7F7;}
</style>
<g id="XMLID_1_">
	<path id="XMLID_30_" class="st0" d="M19.1,38.5c-1-0.5-2.2-0.7-3.2-1.2c-1.4-0.6-2.6-1.5-3.8-2.5c-1.8-1.4-3.1-3.2-4.2-5.2
		c-0.1-0.2-0.2-0.4-0.5-0.5c-2.4-0.7-3.3-2.9-3-5.2c0.2-1.7,1.2-2.9,2.8-3.4c0.3-0.1,0.3-0.3,0.3-0.5c0-0.8,0-1.5,0-2.3
		c0-0.4,0.1-0.7,0.5-0.9c2-1.3,4.3-1.9,6.6-2.3c2.6-0.5,5.1-0.6,7.7-0.4c3.4,0.2,6.7,0.8,9.7,2.5c0.6,0.3,1.1,0.6,0.9,1.4
		c0,0.1,0,0.2,0,0.4c-0.1,1.2,0,2.1,1.3,2.8c2.4,1.4,2.6,6.4-1,7.9c-0.4,0.2-0.6,0.4-0.8,0.7c-1.2,1.9-2.5,3.7-4.2,5.1
		c-2.1,1.7-4.4,3.1-7.1,3.6c0,0,0,0.1-0.1,0.1C20.4,38.5,19.7,38.5,19.1,38.5z"/>
	<path id="XMLID_29_" class="st0" d="M21.1,1.8c3.3,1.3,6.1,3.4,9.3,5c2.1,1.1,4.3,2,6.7,2.5c0.7,0.1,0.6,0.4,0.3,0.8
		c-0.7,1.4-1.9,2.4-2.9,3.6c-0.4,0.5-0.9,0.9-1.3,1.4c-0.2,0.2-0.4,0.2-0.6,0c-1.9-1.4-4.2-2-6.5-2.4c-2.6-0.4-5.2-0.5-7.8-0.4
		c-2.8,0.1-5.6,0.4-8.3,1.5c-0.7,0.3-1.5,0.7-2.1,1.2c-0.3,0.3-0.6,0.2-0.8,0c-1.2-1.2-2.4-2.4-3.3-3.8c-0.3-0.5-0.8-0.9-1-1.4
		C2.6,9.5,2.7,9.4,3,9.3c4.5-0.9,8.3-3.2,12.2-5.4c1.3-0.8,2.6-1.5,4.1-2C19.8,1.8,20.4,1.8,21.1,1.8z"/>
	<path id="XMLID_28_" d="M24.1,21.6c1.3-0.4,2.6-0.5,3.9-1c0.6-0.2,1.1-0.4,1.7-0.6c0,0.4,0,0.7,0,1.1c0,1.3,0.5,2,1.9,2.3
		c0.9,0.2,1.3,0.6,1.3,1.4c0,0.9-0.4,1.4-1.3,1.5c-0.9,0.1-1.3,0.5-1.6,1.2c-1.2,2.7-3.2,4.7-5.6,6.3c-1.2,0.8-2.5,1.3-3.8,1.6
		c-0.7,0.1-1.3-0.1-1.9-0.3c-2.8-1-5-2.8-6.7-5.2c-0.7-1-1.3-2-1.8-3.1c-0.1-0.2-0.2-0.3-0.5-0.3c-0.3,0-0.5-0.1-0.8-0.1
		C8,26,7.6,25.5,7.6,24.7c0-0.8,0.4-1.3,1.1-1.4c0.4-0.1,0.8-0.2,1.1-0.5c0.6-0.5,0.8-1,0.7-1.8c0-0.3,0-0.7,0-1.1
		c1.9,0.7,3.7,1.4,5.7,1.5c0,0,0,0.1,0.1,0.1c0,0-0.1,0.1-0.1,0.1c-0.4,0.2-0.8,0.1-1.3,0.1c-0.9,0-1.8,0-2.7,0.1
		c-1.3,0.2-1.5,0.5-1.5,1.7c0,1.8,1.3,3.5,3,3.9c1.7,0.4,3.6-0.4,4.2-2.1c0.3-0.7,0.7-1,1.4-0.9c0.5,0,1.1,0,1.6,0
		c0.5,0,0.8,0.2,0.9,0.6c0.4,1.4,1.4,2.1,2.8,2.4c2.1,0.5,4.5-1.2,4.6-3.4c0.1-1.7,0.1-2.2-1.9-2.4c-0.9-0.1-1.7,0-2.6-0.1
		C24.7,21.8,24.4,21.8,24.1,21.6C24.1,21.6,24.1,21.6,24.1,21.6z"/>
	<path id="XMLID_27_" class="st0" d="M16.3,21.6c1.4,0,2.7,0.1,4.1,0.1c1.2,0,2.4-0.1,3.6-0.1c0,0,0,0,0,0c-0.1,0.4-0.4,0.3-0.6,0.3
		c-0.6,0.1-1.1,0.3-1.4,0.8c-0.1,0.2-0.3,0.4-0.6,0.5c-0.9,0.2-1.7,0.2-2.6,0c-0.2,0-0.4-0.2-0.5-0.4c-0.4-0.6-0.9-0.9-1.6-1
		C16.6,21.9,16.3,21.8,16.3,21.6L16.3,21.6z"/>
	<path id="XMLID_26_" class="st0" d="M20.1,10.9c-0.5,0-0.9-0.1-1.2-0.5c-0.7-0.8-1.2-1.7-1.4-2.8c-0.1-0.3,0.1-0.5,0.3-0.7
		c1.4-1.1,3.1-1.1,4.5,0c0.2,0.2,0.3,0.4,0.3,0.7c-0.2,1.1-0.6,2-1.4,2.8C21,10.7,20.6,11,20.1,10.9z"/>
	<path id="XMLID_25_" class="st1" d="M16.3,21.6c0.3,0.3,0.8,0.1,1.1,0.3c0.4,0.2,0.8,0.4,0.9,0.8c0.1,0.3,0.3,0.4,0.6,0.4
		c0.8,0.1,1.6,0.1,2.5,0c0.1,0,0.3,0,0.4-0.2c0.3-1,1.1-1.1,2-1.1c0.1,0,0.2,0,0.3-0.1c1.3,0.1,2.7,0,4,0.1c1.2,0.1,1.6,0.5,1.6,1.7
		c0,1-0.2,1.9-0.7,2.7c-0.9,1.3-2.9,2-4.4,1.6c-1.4-0.4-2.3-1.2-2.7-2.6c-0.1-0.4-0.2-0.4-0.6-0.4c-0.3,0-0.6,0-0.9,0
		c-1.1,0-1.9-0.1-2.4,1.3c-0.8,2.1-4.3,2.4-6,0.7c-1.1-1.1-1.5-2.3-1.3-3.8c0.1-0.6,0.3-1,1-1.1c0.7-0.1,1.4-0.2,2.1-0.2
		C14.6,21.6,15.5,21.6,16.3,21.6z"/>
</g>
</svg>
