<?xml version="1.0" encoding="utf-8"?>
<!-- Generator: Adobe Illustrator 19.0.0, SVG Export Plug-In . SVG Version: 6.00 Build 0)  -->
<svg version="1.1"
	 id="svg2" xmlns:dc="http://purl.org/dc/elements/1.1/" xmlns:cc="http://creativecommons.org/ns#" xmlns:rdf="http://www.w3.org/1999/02/22-rdf-syntax-ns#" xmlns:svg="http://www.w3.org/2000/svg" xmlns:sodipodi="http://sodipodi.sourceforge.net/DTD/sodipodi-0.dtd" xmlns:inkscape="http://www.inkscape.org/namespaces/inkscape" inkscape:version="0.46" sodipodi:version="0.32" sodipodi:docname="highway_bus_stop.svg" sodipodi:docbase="s:\Data\FacilityIcons" inkscape:output_extension="org.inkscape.output.svg.inkscape"
	 xmlns="http://www.w3.org/2000/svg" xmlns:xlink="http://www.w3.org/1999/xlink" x="0px" y="0px" viewBox="38 -218 580 580"
	 style="enable-background:new 38 -218 580 580;" xml:space="preserve">
<style type="text/css">
	.st0{fill:#1082E8;}
</style>
<sodipodi:namedview  gridtolerance="10.0" objecttolerance="10.0" guidetolerance="10.0" showgrid="false" id="base" inkscape:zoom="0.65172414" bordercolor="#666666" pagecolor="#ffffff" borderopacity="1.0" inkscape:cx="68.469786" inkscape:cy="186.81904" inkscape:window-x="12" inkscape:window-y="13" inkscape:window-height="1003" inkscape:pageopacity="0.0" inkscape:current-layer="svg2" inkscape:window-width="758" inkscape:pageshadow="2">
	</sodipodi:namedview>
<defs>
	
	
		<inkscape:perspective  sodipodi:type="inkscape:persp3d" inkscape:vp_x="0 : 290 : 1" inkscape:vp_y="0 : 1000 : 0" inkscape:vp_z="580 : 290 : 1" id="perspective3653" inkscape:persp3d-origin="290 : 193.33333 : 1">
		</inkscape:perspective>
	
		<inkscape:perspective  sodipodi:type="inkscape:persp3d" inkscape:vp_x="0 : 217.53 : 1" inkscape:vp_y="0 : 1000 : 0" inkscape:vp_z="355.02399 : 217.53 : 1" id="perspective2512" inkscape:persp3d-origin="177.51199 : 145.02 : 1">
		</inkscape:perspective>
</defs>
<g id="g2121">
</g>
<path d="M328.6-183.4c0.7,0,1.4,0,2.1,0c0.7,0,1.4,0,2.1,0H328.6z"/>
<path class="st0" d="M522.6-106.5c-5.7-28.7-24.1-40.2-51.7-51.7c-27.2-11.3-92.3-24.8-140.3-25.2c-48,0.4-113.1,13.9-140.3,25.2
	c-27.5,11.5-45.9,23-51.7,51.7L118.1,52.6v219.2h35.6v34.4c0,41.9,61.3,41.9,61.3,0v-34.4h113.2h0.3h117.7v34.4
	c0,41.9,61.3,41.9,61.3,0v-34.4h35.6V52.6L522.6-106.5z M243.3-143.3h85.4h89.5c17.2,0,17.2,25.8,0,25.8h-89.7h-85.2
	C226-117.4,226-143.3,243.3-143.3z M184.4,203c-16.2,0-29.4-13.2-29.4-29.4s13.2-29.4,29.4-29.4s29.4,13.2,29.4,29.4
	S200.7,203,184.4,203z M328.6,69.3H172.6c-15.3,0-18.5-11-17-22l16.1-115.4c2.2-14,6.9-23.3,25.1-23.3h131.6h136.1
	c18.2,0,22.9,9.2,25.2,23.3l16.1,115.4c1.5,11.1-1.7,22-17,22H328.6z M477,203c-16.2,0-29.4-13.2-29.4-29.4s13.2-29.4,29.4-29.4
	s29.4,13.2,29.4,29.4S493.2,203,477,203z"/>
</svg>
