<?xml version="1.0" encoding="utf-8"?>
<!-- Generator: Adobe Illustrator 19.0.0, SVG Export Plug-In . SVG Version: 6.00 Build 0)  -->
<svg version="1.1" id="Layer_1" xmlns="http://www.w3.org/2000/svg" xmlns:xlink="http://www.w3.org/1999/xlink" x="0px" y="0px"
	 viewBox="0 0 146 144" style="enable-background:new 0 0 146 144;" xml:space="preserve">
<style type="text/css">
	.st0{fill:#19459E;}
	.st1{fill:#FFFFFF;}
</style>
<g>
	<path class="st0" d="M8.6,130c0-2.7,0-5.3,0-8c0.3-0.2,0.6-0.5,1-0.6c3.9-1.1,3.9-1.1,3.9-5.2c0-17.4,0-34.9,0-52.3
		c0-2.9-0.4-5.9,3.9-6.2c1.3-0.1,1.4-1.6,1.2-2.5c-0.9-5.2,2.6-7.2,6.3-9.3c0.7-0.4,1.4-0.6,2.2-0.5c3.3,0.4,7.3,4.9,7.5,8.2
		c0,0.9-0.2,1.9,0.4,3.1c0.3-2.1,0.1-4,0.2-5.8c0.1-3.6,0.6-4.2,4.1-4.2c3.3-0.1,6.6,0,10,0c3.1-0.1,3.5-0.4,3.5-3.4
		c0.1-2.7,0-5.3,0-8c0-2.1,0.7-3.6,2.4-4.8C60,27,65.1,23.6,70,20c1.8-1.3,3.4-1.3,5.2,0c4.9,3.6,9.9,6.9,14.9,10.5
		c1.7,1.2,2.4,2.8,2.4,4.8c0,2.7,0,5.3,0,8c0.1,3,0.4,3.4,3.5,3.4c3.3,0.1,6.6,0,10,0c3.5,0.1,4,0.7,4.1,4.2c0,1.7-0.1,3.4,0.1,5.1
		c0,0.2,0.1,0.4,0.2,0.4c0.2-0.2,0.3-0.5,0.3-0.8c-0.9-4.9,2.2-7.4,5.9-9.5c1.3-0.7,2.5-0.8,3.8-0.1c3.7,2,7.2,4.1,6.3,9.3
		c-0.2,1.4,0.3,2.7,2,2.8c2.5,0.1,3,1.8,3,3.9c0,4.6,0,9.3,0,13.9c0,13.5,0,26.9,0,40.4c0,4.1,0,4.1,3.9,5.2c0.4,0.1,0.7,0.3,1,0.6
		c0,2.7,0,5.3,0,8c-1.1,1-2.4,0.9-3.8,0.9c-40.2,0-80.3,0-120.5,0C11,131,9.7,131,8.6,130z"/>
	<path class="st1" d="M8.6,130c0.7,0,1.3-0.1,2-0.1c41.3,0,82.7,0,124,0c0.7,0,1.3,0.1,2,0.1c0,2.5-0.1,4.9,0,7.4
		c0,0.9-0.1,1.4-1.1,1.2c-0.4-0.1-0.8,0-1.1,0c-41.2,0-82.3,0-123.5,0.1c-2,0-2.5-0.4-2.3-2.3C8.7,134.2,8.6,132.1,8.6,130z"/>
	<path class="st1" d="M72.5,48.7c-3.8,0-7-3.3-7-7.1c0.1-3.6,3.2-6.8,6.9-6.9c3.7-0.1,7.1,3.2,7.1,7C79.6,45.4,76.3,48.7,72.5,48.7z
		"/>
	<path class="st1" d="M44.6,74.3c0-1.3,0.2-2.7,0-4c-0.5-2.9,0.7-3.5,3.5-3.5c3,0,3.9,0.8,3.6,3.7c-0.3,3-0.2,6,0,9
		c0.1,1.8-0.5,2.2-2.2,2.2c-4.8,0-4.8,0.1-4.8-4.9C44.6,76,44.6,75.1,44.6,74.3z"/>
	<path class="st0" d="M93.5,74c0-0.8,0-1.7,0-2.5c0-4.7,1.2-5.6,5.9-4.6c0.9,0.2,1.1,0.5,1.1,1.3c0,4.1,0,8.1,0,12.2
		c0,1.2-0.6,1.3-1.6,1.4c-5.5,0.4-5.5,0.4-5.5-5.1C93.5,75.7,93.5,74.9,93.5,74z"/>
	<path class="st1" d="M44.6,110.1c0-0.9,0-1.7,0-2.6c0-5,0-4.9,4.9-4.9c1.6,0,2.2,0.4,2.1,2.1c-0.1,3.6-0.1,7.2,0,10.8
		c0.1,1.7-0.6,2-2.1,2c-4.9,0-4.9,0.1-4.9-4.9C44.6,111.9,44.6,111,44.6,110.1z"/>
	<path class="st0" d="M100.6,110.2c0,1.2-0.2,2.5,0,3.7c0.5,3-0.7,3.7-3.6,3.7c-2.9,0-3.7-0.7-3.5-3.6c0.3-3,0.2-6.1,0-9.1
		c-0.1-1.7,0.4-2.3,2.2-2.3c4.8,0,4.8-0.1,4.8,4.7C100.6,108.3,100.6,109.3,100.6,110.2z"/>
	<path class="st1" d="M51.6,92.4c0,1.1,0,2.3,0,3.4c0,3.9,0,3.7-3.9,3.9c-2.4,0.1-3.4-0.5-3.1-3.1c0.3-3.2,0.2-6.4,0-9.6
		c-0.1-1.8,0.6-2.2,2.3-2.2c4.8,0,4.8-0.1,4.8,4.8C51.6,90.5,51.6,91.5,51.6,92.4z"/>
	<path class="st0" d="M100.6,92.4c0,1.1,0,2.3,0,3.4c0,3.9,0,3.8-3.9,3.9c-2.4,0.1-3.4-0.4-3.2-3c0.3-3.2,0.2-6.4,0-9.6
		c-0.1-1.8,0.5-2.2,2.2-2.2c4.8,0,4.8-0.1,4.8,4.7C100.6,90.5,100.6,91.4,100.6,92.4z"/>
	<path class="st1" d="M35.3,74.3c0,1.3-0.2,2.7,0,4c0.5,2.9-0.7,3.5-3.5,3.5c-2.9,0-3.7-0.7-3.5-3.5c0.3-3.1,0.2-6.2,0-9.4
		c-0.1-1.6,0.5-2,2-2c4.9,0,4.9-0.1,4.9,4.9C35.3,72.6,35.3,73.4,35.3,74.3z"/>
	<path class="st1" d="M67.8,74.4c0,1.3-0.2,2.7,0,4c0.5,3-0.8,3.4-3.5,3.5c-3,0.1-3.6-0.9-3.4-3.6c0.2-3.1,0.1-6.2,0-9.4
		c0-1.4,0.3-1.9,1.8-2c5-0.1,5-0.2,5,5C67.8,72.7,67.8,73.5,67.8,74.4z"/>
	<path class="st1" d="M77.4,74.2c0-1.3,0.2-2.7,0-4c-0.5-3,0.8-3.4,3.5-3.5c3-0.1,3.7,0.8,3.4,3.6c-0.3,3.1-0.1,6.2,0,9.4
		c0,1.4-0.2,2-1.8,2c-5.1,0.1-5,0.2-5-4.9C77.4,75.9,77.4,75.1,77.4,74.2z"/>
	<path class="st0" d="M116.7,74.5c0,1.3-0.2,2.7,0,4c0.5,2.9-0.8,3.3-3.4,3.3c-3,0.1-3.8-0.8-3.6-3.7c0.3-3,0.1-6.1,0-9.1
		c-0.1-1.5,0.3-2.1,2-2.1c4.9,0,4.9-0.1,4.9,4.8C116.7,72.6,116.7,73.5,116.7,74.5z"/>
	<path class="st1" d="M67.8,92.2c0,1,0.1,2.1,0,3.1c-0.1,1.4,0.7,3.5-0.4,4c-1.6,0.7-3.7,0.3-5.5,0.3c-1,0-0.9-0.7-0.9-1.4
		c0-4,0-7.9,0-11.9c0-1.1,0.3-1.4,1.4-1.5c5.4-0.5,5.4-0.5,5.4,4.8C67.8,90.5,67.8,91.4,67.8,92.2z"/>
	<path class="st1" d="M84.2,92.3c0,1.4-0.2,2.9,0,4.2c0.4,2.7-0.7,3.3-3.2,3.2c-3.6-0.2-3.6-0.1-3.6-3.8c0-3,0-6,0-9.1
		c0-1.3,0.1-2,1.8-2c5.1-0.1,5.1-0.2,5.1,4.9C84.2,90.6,84.2,91.4,84.2,92.3z"/>
	<path class="st1" d="M28.4,109.9c0-0.8,0-1.5,0-2.3c0-5.3,0-5.3,5.3-4.9c1.3,0.1,1.6,0.5,1.6,1.7c-0.1,3.8-0.1,7.6,0,11.3
		c0.1,1.6-0.7,1.8-2,1.8c-4.9,0.1-4.9,0.1-4.9-4.8C28.4,111.8,28.4,110.9,28.4,109.9z"/>
	<path class="st1" d="M67.8,110.3c0,1.3-0.2,2.7,0,4c0.5,2.8-0.7,3.3-3.3,3.4c-3,0-3.9-0.8-3.6-3.7c0.3-3.1,0.1-6.2,0-9.3
		c-0.1-1.5,0.5-1.9,1.9-1.9c4.9-0.1,4.9-0.1,4.9,4.8C67.8,108.4,67.8,109.4,67.8,110.3z"/>
	<path class="st1" d="M84.2,110.3c0,1.3-0.2,2.7,0,4c0.5,2.9-0.8,3.2-3.4,3.3c-3,0.1-3.8-0.9-3.6-3.7c0.3-3.1,0.1-6.2,0-9.3
		c-0.1-1.6,0.5-1.8,1.9-1.9c4.9-0.1,4.9-0.1,4.9,4.8C84.2,108.5,84.2,109.4,84.2,110.3z"/>
	<path class="st0" d="M116.7,110.3c0,1.2-0.2,2.5,0,3.7c0.4,2.9-0.5,3.7-3.5,3.7c-3,0-3.6-0.9-3.4-3.6c0.2-3.1,0.1-6.2,0-9.3
		c0-1.4,0.3-1.9,1.9-2c5-0.1,5-0.2,5,5C116.7,108.6,116.7,109.4,116.7,110.3z"/>
	<path class="st1" d="M35.3,92.5c0,1.1,0.1,2.3,0,3.4c-0.2,1.2,0.8,3.1-0.6,3.6c-1.7,0.6-3.7,0.2-5.6,0.2c-0.7,0-0.6-0.8-0.6-1.4
		c0-4,0-7.9,0-11.9c0-1,0.2-1.4,1.4-1.5c5.5-0.5,5.5-0.6,5.5,4.8C35.3,90.6,35.3,91.5,35.3,92.5z"/>
	<path class="st0" d="M116.7,92.3c0,1.2,0,2.5,0,3.7c0,3.7,0,3.5-3.8,3.7c-2.4,0.1-3.4-0.4-3.2-3c0.3-3.3,0.1-6.6,0-9.9
		c0-1.4,0.3-1.9,1.9-2c5-0.1,5-0.2,5,4.7C116.7,90.4,116.7,91.4,116.7,92.3z"/>
	<path class="st1" d="M25.4,55.8c-0.3,1.3,0.9,3.2-2,3.2c-3,0-1.8-2-1.9-3.3c0-1.2-1.1-3,1.7-3.1C26.1,52.5,25.3,54.3,25.4,55.8z"/>
	<path class="st0" d="M123.7,55.8c-0.4,1.2,0.9,3.1-1.9,3.1c-3.1,0-2-2-2.1-3.5c-0.1-1.4-0.6-2.9,2-2.9
		C124.8,52.6,123.2,54.7,123.7,55.8z"/>
	<path class="st1" d="M27.6,55.7c0.4-1.2-0.9-3.1,1.9-3.1c2.9-0.1,2,1.8,2,3.1c0,1.3,1,3.3-1.9,3.2C26.6,58.9,28.1,56.9,27.6,55.7z"
		/>
	<path class="st0" d="M117.5,55.7c-0.2,1.4,0.8,3.4-2.1,3.3c-3-0.1-1.6-2.1-1.8-3.4c-0.1-1.2-0.9-3,1.8-3
		C118.4,52.6,117.1,54.5,117.5,55.7z"/>
</g>
</svg>
